<svg width="26" height="26" viewBox="0 0 26 26" fill="none" xmlns="http://www.w3.org/2000/svg">
<g clip-path="url(#clip0_621_899)">
<path d="M24.9752 20.8625L21.0867 17.185C21.0157 17.118 20.9362 17.067 20.8597 17.01C21.7647 15.4145 22.2552 13.6075 22.2552 11.723C22.2552 8.83904 21.1322 6.14054 19.0962 4.10504C17.0682 2.06904 14.3622 0.946045 11.4862 0.946045C8.60223 0.946045 5.90373 2.06904 3.86823 4.10504C1.83223 6.14104 0.709229 8.83904 0.709229 11.723C0.709229 14.599 1.83223 17.3055 3.86823 19.333C5.90423 21.369 8.60223 22.4915 11.4862 22.4915C13.7127 22.4915 15.8337 21.8115 17.6207 20.5625C17.6647 20.612 17.7012 20.666 17.7502 20.712L21.6387 24.3895C22.6127 25.3105 24.1492 25.268 25.0707 24.294C25.9922 23.32 25.9492 21.7835 24.9752 20.8625ZM8.15823 15.625C8.15823 16.0695 7.79473 16.433 7.35023 16.433H5.12073C4.67623 16.433 4.31273 16.0695 4.31273 15.625V9.09754C4.31273 8.64504 4.67623 8.28955 5.12073 8.28955H7.35023C7.79473 8.28955 8.15823 8.64504 8.15823 9.09754V15.625ZM13.4012 15.625C13.4012 16.0695 13.0457 16.433 12.5932 16.433H10.3717C9.92723 16.433 9.56373 16.0695 9.56373 15.625V6.67404C9.56373 6.22154 9.92723 5.86604 10.3717 5.86604H12.5932C13.0457 5.86604 13.4012 6.22154 13.4012 6.67404V15.625ZM14.8067 15.625V9.90555C14.8067 9.45304 15.1702 9.09754 15.6147 9.09754H17.8442C18.2887 9.09754 18.6522 9.45304 18.6522 9.90555V15.625C18.6522 16.0695 18.2887 16.433 17.8442 16.433H15.6147C15.1702 16.433 14.8067 16.0695 14.8067 15.625Z" fill="#C1D1FB"/>
</g>
<defs>
<clipPath id="clip0_621_899">
<rect width="26" height="26" fill="white"/>
</clipPath>
</defs>
</svg>
