<svg width="26" height="26" viewBox="0 0 26 26" fill="none" xmlns="http://www.w3.org/2000/svg">
<path d="M5.98619 13.7945C6.28534 13.7945 6.52785 13.552 6.52785 13.2528C6.52785 12.9537 6.28534 12.7112 5.98619 12.7112C5.68703 12.7112 5.44452 12.9537 5.44452 13.2528C5.44452 13.552 5.68703 13.7945 5.98619 13.7945Z" fill="#C1D1FB"/>
<path d="M16.1695 19.8972L18.4445 24.5556H19.4195L17.1806 19.8972H16.1695Z" fill="#C1D1FB"/>
<path d="M12.5223 19.8972H13.6056V24.5556H12.5223V19.8972Z" fill="#C1D1FB"/>
<path d="M9.70564 10.075C10.0048 10.075 10.2473 9.83252 10.2473 9.53337C10.2473 9.23421 10.0048 8.9917 9.70564 8.9917C9.40648 8.9917 9.16397 9.23421 9.16397 9.53337C9.16397 9.83252 9.40648 10.075 9.70564 10.075Z" fill="#C1D1FB"/>
<path d="M5.91397 24.5556H6.88897L9.16397 19.8972H8.15286L5.91397 24.5556Z" fill="#C1D1FB"/>
<path d="M22.1279 18.3083H3.20564C2.98897 18.3083 2.77231 18.4889 2.77231 18.7417C2.77231 18.9945 2.98897 19.1389 3.20564 19.1389H22.1279C22.3445 19.1389 22.5612 18.9583 22.5612 18.7056C22.5612 18.4528 22.3445 18.3083 22.1279 18.3083Z" fill="#C1D1FB"/>
<path d="M22.1279 1.44446H3.20564C2.98897 1.44446 2.77231 1.62501 2.77231 1.87779C2.77231 2.13057 2.95286 2.31112 3.20564 2.31112H22.1279C22.3445 2.31112 22.5612 2.13057 22.5612 1.87779C22.5612 1.62501 22.3445 1.44446 22.1279 1.44446Z" fill="#C1D1FB"/>
<path d="M13.4612 13.7945C13.7603 13.7945 14.0029 13.552 14.0029 13.2528C14.0029 12.9537 13.7603 12.7112 13.4612 12.7112C13.162 12.7112 12.9195 12.9537 12.9195 13.2528C12.9195 13.552 13.162 13.7945 13.4612 13.7945Z" fill="#C1D1FB"/>
<path d="M3.56674 3.03333V17.5861H21.7306V3.03333H3.56674ZM20.6473 8.77499C20.6473 8.99166 20.4667 9.1361 20.2862 9.1361C20.1056 9.1361 19.9251 8.95555 19.9251 8.77499V7.29444L14.5806 12.6389C14.689 12.8194 14.7251 13.0361 14.7251 13.2528C14.7251 13.975 14.1473 14.5528 13.4251 14.5528C12.7029 14.5528 12.1251 13.975 12.1251 13.2528C12.1251 13.0361 12.1973 12.8194 12.2695 12.6389L10.2834 10.6528C10.139 10.7611 9.95841 10.8333 9.70563 10.8333C9.48896 10.8333 9.2723 10.7611 9.09174 10.6889L7.14174 12.6389C7.25008 12.8194 7.28619 13.0361 7.28619 13.2528C7.28619 13.975 6.70841 14.5528 5.98619 14.5528C5.26396 14.5528 4.68619 13.975 4.68619 13.2528C4.68619 12.5305 5.26396 11.9528 5.98619 11.9528C6.20285 11.9528 6.41952 12.025 6.60008 12.0972L8.58619 10.1111C8.47785 9.93055 8.44174 9.71388 8.44174 9.49721C8.44174 8.77499 9.01952 8.19721 9.74174 8.19721C10.464 8.19721 11.0417 8.77499 11.0417 9.49721C11.0417 9.71388 10.9695 9.93055 10.8973 10.1111L12.8834 12.0972C13.064 11.9889 13.2806 11.9528 13.4973 11.9528C13.714 11.9528 13.9306 12.025 14.1112 12.0972L19.4195 6.78888H17.939C17.7223 6.78888 17.5779 6.60833 17.5779 6.42777C17.5779 6.24721 17.7584 6.06666 17.939 6.06666H20.3223C20.539 6.06666 20.6834 6.24721 20.6834 6.42777V8.77499H20.6473Z" fill="#C1D1FB"/>
</svg>
