<svg width="400" height="206" viewBox="0 0 400 206" fill="none" xmlns="http://www.w3.org/2000/svg">
<rect width="400" height="206" rx="16" fill="white"/>
<rect width="400" height="206" rx="16" fill="#EDEEF2"/>
<path d="M31.354 35.14C30.5887 35.14 29.856 35.0327 29.156 34.818C28.456 34.594 27.9007 34.3093 27.49 33.964L28.12 32.55C28.512 32.858 28.9973 33.1147 29.576 33.32C30.1547 33.5253 30.7473 33.628 31.354 33.628C31.8673 33.628 32.2827 33.572 32.6 33.46C32.9173 33.348 33.1507 33.1987 33.3 33.012C33.4493 32.816 33.524 32.5967 33.524 32.354C33.524 32.0553 33.4167 31.8173 33.202 31.64C32.9873 31.4533 32.7073 31.3087 32.362 31.206C32.026 31.094 31.648 30.9913 31.228 30.898C30.8173 30.8047 30.402 30.6973 29.982 30.576C29.5713 30.4453 29.1933 30.282 28.848 30.086C28.512 29.8807 28.2367 29.61 28.022 29.274C27.8073 28.938 27.7 28.5087 27.7 27.986C27.7 27.454 27.84 26.9687 28.12 26.53C28.4093 26.082 28.8433 25.7273 29.422 25.466C30.01 25.1953 30.752 25.06 31.648 25.06C32.236 25.06 32.8193 25.1347 33.398 25.284C33.9767 25.4333 34.4807 25.648 34.91 25.928L34.336 27.342C33.8973 27.0807 33.4447 26.8893 32.978 26.768C32.5113 26.6373 32.0633 26.572 31.634 26.572C31.13 26.572 30.7193 26.6327 30.402 26.754C30.094 26.8753 29.8653 27.034 29.716 27.23C29.576 27.426 29.506 27.65 29.506 27.902C29.506 28.2007 29.6087 28.4433 29.814 28.63C30.0287 28.8073 30.304 28.9473 30.64 29.05C30.9853 29.1527 31.368 29.2553 31.788 29.358C32.208 29.4513 32.6233 29.5587 33.034 29.68C33.454 29.8013 33.832 29.96 34.168 30.156C34.5133 30.352 34.7887 30.618 34.994 30.954C35.2087 31.29 35.316 31.7147 35.316 32.228C35.316 32.7507 35.1713 33.236 34.882 33.684C34.602 34.1227 34.168 34.4773 33.58 34.748C32.992 35.0093 32.25 35.14 31.354 35.14ZM39.7667 35.098C38.9454 35.098 38.3107 34.888 37.8627 34.468C37.4147 34.0387 37.1907 33.4087 37.1907 32.578V25.872H38.9407V32.536C38.9407 32.8907 39.0294 33.166 39.2067 33.362C39.3934 33.558 39.65 33.656 39.9767 33.656C40.3687 33.656 40.6954 33.5533 40.9567 33.348L41.4467 34.594C41.2414 34.762 40.9894 34.888 40.6907 34.972C40.392 35.056 40.084 35.098 39.7667 35.098ZM35.9587 28.924V27.524H40.9427V28.924H35.9587ZM47.2325 35V33.488L47.1345 33.166V30.52C47.1345 30.0067 46.9805 29.61 46.6725 29.33C46.3645 29.0407 45.8978 28.896 45.2725 28.896C44.8525 28.896 44.4372 28.9613 44.0265 29.092C43.6252 29.2227 43.2845 29.4047 43.0045 29.638L42.3185 28.364C42.7198 28.056 43.1958 27.8273 43.7465 27.678C44.3065 27.5193 44.8852 27.44 45.4825 27.44C46.5652 27.44 47.4005 27.7013 47.9885 28.224C48.5858 28.7373 48.8845 29.5353 48.8845 30.618V35H47.2325ZM44.8805 35.098C44.3205 35.098 43.8305 35.0047 43.4105 34.818C42.9905 34.622 42.6638 34.356 42.4305 34.02C42.2065 33.6747 42.0945 33.2873 42.0945 32.858C42.0945 32.438 42.1925 32.06 42.3885 31.724C42.5938 31.388 42.9252 31.122 43.3825 30.926C43.8398 30.73 44.4465 30.632 45.2025 30.632H47.3725V31.794H45.3285C44.7312 31.794 44.3298 31.892 44.1245 32.088C43.9192 32.2747 43.8165 32.508 43.8165 32.788C43.8165 33.1053 43.9425 33.3573 44.1945 33.544C44.4465 33.7307 44.7965 33.824 45.2445 33.824C45.6738 33.824 46.0565 33.726 46.3925 33.53C46.7378 33.334 46.9852 33.0447 47.1345 32.662L47.4285 33.712C47.2605 34.1507 46.9572 34.4913 46.5185 34.734C46.0892 34.9767 45.5432 35.098 44.8805 35.098ZM53.9444 35.098C53.1231 35.098 52.4884 34.888 52.0404 34.468C51.5924 34.0387 51.3684 33.4087 51.3684 32.578V25.872H53.1184V32.536C53.1184 32.8907 53.2071 33.166 53.3844 33.362C53.5711 33.558 53.8278 33.656 54.1544 33.656C54.5464 33.656 54.8731 33.5533 55.1344 33.348L55.6244 34.594C55.4191 34.762 55.1671 34.888 54.8684 34.972C54.5698 35.056 54.2618 35.098 53.9444 35.098ZM50.1364 28.924V27.524H55.1204V28.924H50.1364ZM57.064 35V27.524H58.814V35H57.064ZM57.946 26.292C57.6193 26.292 57.3487 26.1893 57.134 25.984C56.9287 25.7787 56.826 25.5313 56.826 25.242C56.826 24.9433 56.9287 24.696 57.134 24.5C57.3487 24.2947 57.6193 24.192 57.946 24.192C58.2727 24.192 58.5387 24.29 58.744 24.486C58.9587 24.6727 59.066 24.9107 59.066 25.2C59.066 25.508 58.9633 25.7693 58.758 25.984C58.5527 26.1893 58.282 26.292 57.946 26.292ZM63.4209 35.098C62.7956 35.098 62.1936 35.0187 61.6149 34.86C61.0456 34.692 60.5929 34.4913 60.2569 34.258L60.9289 32.928C61.2649 33.1427 61.6662 33.32 62.1329 33.46C62.5996 33.6 63.0662 33.67 63.5329 33.67C64.0836 33.67 64.4802 33.5953 64.7229 33.446C64.9749 33.2967 65.1009 33.096 65.1009 32.844C65.1009 32.6387 65.0169 32.4847 64.8489 32.382C64.6809 32.27 64.4616 32.186 64.1909 32.13C63.9202 32.074 63.6169 32.0227 63.2809 31.976C62.9542 31.9293 62.6229 31.8687 62.2869 31.794C61.9602 31.71 61.6616 31.5933 61.3909 31.444C61.1202 31.2853 60.9009 31.0753 60.7329 30.814C60.5649 30.5527 60.4809 30.2073 60.4809 29.778C60.4809 29.302 60.6162 28.8913 60.8869 28.546C61.1576 28.1913 61.5356 27.9207 62.0209 27.734C62.5156 27.538 63.0989 27.44 63.7709 27.44C64.2749 27.44 64.7836 27.496 65.2969 27.608C65.8102 27.72 66.2349 27.8787 66.5709 28.084L65.8989 29.414C65.5442 29.1993 65.1849 29.0547 64.8209 28.98C64.4662 28.896 64.1116 28.854 63.7569 28.854C63.2249 28.854 62.8282 28.9333 62.5669 29.092C62.3149 29.2507 62.1889 29.4513 62.1889 29.694C62.1889 29.918 62.2729 30.086 62.4409 30.198C62.6089 30.31 62.8282 30.3987 63.0989 30.464C63.3696 30.5293 63.6682 30.5853 63.9949 30.632C64.3309 30.6693 64.6622 30.73 64.9889 30.814C65.3156 30.898 65.6142 31.0147 65.8849 31.164C66.1649 31.304 66.3889 31.5047 66.5569 31.766C66.7249 32.0273 66.8089 32.368 66.8089 32.788C66.8089 33.2547 66.6689 33.6607 66.3889 34.006C66.1182 34.3513 65.7309 34.622 65.2269 34.818C64.7229 35.0047 64.1209 35.098 63.4209 35.098ZM71.13 35.098C70.3086 35.098 69.674 34.888 69.226 34.468C68.778 34.0387 68.554 33.4087 68.554 32.578V25.872H70.304V32.536C70.304 32.8907 70.3926 33.166 70.57 33.362C70.7566 33.558 71.0133 33.656 71.34 33.656C71.732 33.656 72.0586 33.5533 72.32 33.348L72.81 34.594C72.6046 34.762 72.3526 34.888 72.054 34.972C71.7553 35.056 71.4473 35.098 71.13 35.098ZM67.322 28.924V27.524H72.306V28.924H67.322ZM74.2496 35V27.524H75.9996V35H74.2496ZM75.1316 26.292C74.8049 26.292 74.5342 26.1893 74.3196 25.984C74.1142 25.7787 74.0116 25.5313 74.0116 25.242C74.0116 24.9433 74.1142 24.696 74.3196 24.5C74.5342 24.2947 74.8049 24.192 75.1316 24.192C75.4582 24.192 75.7242 24.29 75.9296 24.486C76.1442 24.6727 76.2516 24.9107 76.2516 25.2C76.2516 25.508 76.1489 25.7693 75.9436 25.984C75.7382 26.1893 75.4676 26.292 75.1316 26.292ZM81.7264 35.098C80.9424 35.098 80.2424 34.9347 79.6264 34.608C79.0198 34.272 78.5438 33.8147 78.1984 33.236C77.8531 32.6573 77.6804 31.9993 77.6804 31.262C77.6804 30.5153 77.8531 29.8573 78.1984 29.288C78.5438 28.7093 79.0198 28.2567 79.6264 27.93C80.2424 27.6033 80.9424 27.44 81.7264 27.44C82.4544 27.44 83.0938 27.5893 83.6444 27.888C84.2044 28.1773 84.6291 28.6067 84.9184 29.176L83.5744 29.96C83.3504 29.6053 83.0751 29.344 82.7484 29.176C82.4311 29.008 82.0858 28.924 81.7124 28.924C81.2831 28.924 80.8958 29.0173 80.5504 29.204C80.2051 29.3907 79.9344 29.6613 79.7384 30.016C79.5424 30.3613 79.4444 30.7767 79.4444 31.262C79.4444 31.7473 79.5424 32.1673 79.7384 32.522C79.9344 32.8673 80.2051 33.1333 80.5504 33.32C80.8958 33.5067 81.2831 33.6 81.7124 33.6C82.0858 33.6 82.4311 33.516 82.7484 33.348C83.0751 33.18 83.3504 32.9187 83.5744 32.564L84.9184 33.348C84.6291 33.908 84.2044 34.342 83.6444 34.65C83.0938 34.9487 82.4544 35.098 81.7264 35.098ZM88.7412 35.098C88.1159 35.098 87.5139 35.0187 86.9352 34.86C86.3659 34.692 85.9132 34.4913 85.5772 34.258L86.2492 32.928C86.5852 33.1427 86.9865 33.32 87.4532 33.46C87.9199 33.6 88.3865 33.67 88.8532 33.67C89.4039 33.67 89.8005 33.5953 90.0432 33.446C90.2952 33.2967 90.4212 33.096 90.4212 32.844C90.4212 32.6387 90.3372 32.4847 90.1692 32.382C90.0012 32.27 89.7819 32.186 89.5112 32.13C89.2405 32.074 88.9372 32.0227 88.6012 31.976C88.2745 31.9293 87.9432 31.8687 87.6072 31.794C87.2805 31.71 86.9819 31.5933 86.7112 31.444C86.4405 31.2853 86.2212 31.0753 86.0532 30.814C85.8852 30.5527 85.8012 30.2073 85.8012 29.778C85.8012 29.302 85.9365 28.8913 86.2072 28.546C86.4779 28.1913 86.8559 27.9207 87.3412 27.734C87.8359 27.538 88.4192 27.44 89.0912 27.44C89.5952 27.44 90.1039 27.496 90.6172 27.608C91.1305 27.72 91.5552 27.8787 91.8912 28.084L91.2192 29.414C90.8645 29.1993 90.5052 29.0547 90.1412 28.98C89.7865 28.896 89.4319 28.854 89.0772 28.854C88.5452 28.854 88.1485 28.9333 87.8872 29.092C87.6352 29.2507 87.5092 29.4513 87.5092 29.694C87.5092 29.918 87.5932 30.086 87.7612 30.198C87.9292 30.31 88.1485 30.3987 88.4192 30.464C88.6899 30.5293 88.9885 30.5853 89.3152 30.632C89.6512 30.6693 89.9825 30.73 90.3092 30.814C90.6359 30.898 90.9345 31.0147 91.2052 31.164C91.4852 31.304 91.7092 31.5047 91.8772 31.766C92.0452 32.0273 92.1292 32.368 92.1292 32.788C92.1292 33.2547 91.9892 33.6607 91.7092 34.006C91.4385 34.3513 91.0512 34.622 90.5472 34.818C90.0432 35.0047 89.4412 35.098 88.7412 35.098ZM100.711 35.14C99.9461 35.14 99.2134 35.0327 98.5134 34.818C97.8134 34.594 97.2581 34.3093 96.8474 33.964L97.4774 32.55C97.8694 32.858 98.3548 33.1147 98.9334 33.32C99.5121 33.5253 100.105 33.628 100.711 33.628C101.225 33.628 101.64 33.572 101.957 33.46C102.275 33.348 102.508 33.1987 102.657 33.012C102.807 32.816 102.881 32.5967 102.881 32.354C102.881 32.0553 102.774 31.8173 102.559 31.64C102.345 31.4533 102.065 31.3087 101.719 31.206C101.383 31.094 101.005 30.9913 100.585 30.898C100.175 30.8047 99.7594 30.6973 99.3394 30.576C98.9288 30.4453 98.5508 30.282 98.2054 30.086C97.8694 29.8807 97.5941 29.61 97.3794 29.274C97.1648 28.938 97.0574 28.5087 97.0574 27.986C97.0574 27.454 97.1974 26.9687 97.4774 26.53C97.7668 26.082 98.2008 25.7273 98.7794 25.466C99.3674 25.1953 100.109 25.06 101.005 25.06C101.593 25.06 102.177 25.1347 102.755 25.284C103.334 25.4333 103.838 25.648 104.267 25.928L103.693 27.342C103.255 27.0807 102.802 26.8893 102.335 26.768C101.869 26.6373 101.421 26.572 100.991 26.572C100.487 26.572 100.077 26.6327 99.7594 26.754C99.4514 26.8753 99.2228 27.034 99.0734 27.23C98.9334 27.426 98.8634 27.65 98.8634 27.902C98.8634 28.2007 98.9661 28.4433 99.1714 28.63C99.3861 28.8073 99.6614 28.9473 99.9974 29.05C100.343 29.1527 100.725 29.2553 101.145 29.358C101.565 29.4513 101.981 29.5587 102.391 29.68C102.811 29.8013 103.189 29.96 103.525 30.156C103.871 30.352 104.146 30.618 104.351 30.954C104.566 31.29 104.673 31.7147 104.673 32.228C104.673 32.7507 104.529 33.236 104.239 33.684C103.959 34.1227 103.525 34.4773 102.937 34.748C102.349 35.0093 101.607 35.14 100.711 35.14ZM109.474 35.098C108.839 35.098 108.279 34.9813 107.794 34.748C107.309 34.5053 106.931 34.1413 106.66 33.656C106.389 33.1613 106.254 32.5407 106.254 31.794V27.524H108.004V31.556C108.004 32.228 108.153 32.732 108.452 33.068C108.76 33.3947 109.194 33.558 109.754 33.558C110.165 33.558 110.519 33.474 110.818 33.306C111.126 33.138 111.364 32.886 111.532 32.55C111.709 32.214 111.798 31.7987 111.798 31.304V27.524H113.548V35H111.882V32.984L112.176 33.6C111.924 34.0853 111.555 34.4587 111.07 34.72C110.585 34.972 110.053 35.098 109.474 35.098ZM115.839 35V27.524H117.505V29.512L117.211 28.924C117.463 28.4387 117.827 28.07 118.303 27.818C118.789 27.566 119.339 27.44 119.955 27.44C120.655 27.44 121.262 27.6127 121.775 27.958C122.298 28.3033 122.643 28.826 122.811 29.526L122.125 29.288C122.368 28.728 122.769 28.28 123.329 27.944C123.889 27.608 124.538 27.44 125.275 27.44C125.873 27.44 126.4 27.5567 126.857 27.79C127.324 28.0233 127.688 28.3827 127.949 28.868C128.211 29.344 128.341 29.96 128.341 30.716V35H126.591V30.94C126.591 30.2773 126.447 29.7827 126.157 29.456C125.868 29.1293 125.453 28.966 124.911 28.966C124.529 28.966 124.188 29.05 123.889 29.218C123.6 29.386 123.371 29.6333 123.203 29.96C123.045 30.2867 122.965 30.702 122.965 31.206V35H121.215V30.94C121.215 30.2773 121.071 29.7827 120.781 29.456C120.492 29.1293 120.077 28.966 119.535 28.966C119.153 28.966 118.812 29.05 118.513 29.218C118.224 29.386 117.995 29.6333 117.827 29.96C117.669 30.2867 117.589 30.702 117.589 31.206V35H115.839ZM130.578 35V27.524H132.244V29.512L131.95 28.924C132.202 28.4387 132.566 28.07 133.042 27.818C133.527 27.566 134.078 27.44 134.694 27.44C135.394 27.44 136 27.6127 136.514 27.958C137.036 28.3033 137.382 28.826 137.55 29.526L136.864 29.288C137.106 28.728 137.508 28.28 138.068 27.944C138.628 27.608 139.276 27.44 140.014 27.44C140.611 27.44 141.138 27.5567 141.596 27.79C142.062 28.0233 142.426 28.3827 142.688 28.868C142.949 29.344 143.08 29.96 143.08 30.716V35H141.33V30.94C141.33 30.2773 141.185 29.7827 140.896 29.456C140.606 29.1293 140.191 28.966 139.65 28.966C139.267 28.966 138.926 29.05 138.628 29.218C138.338 29.386 138.11 29.6333 137.942 29.96C137.783 30.2867 137.704 30.702 137.704 31.206V35H135.954V30.94C135.954 30.2773 135.809 29.7827 135.52 29.456C135.23 29.1293 134.815 28.966 134.274 28.966C133.891 28.966 133.55 29.05 133.252 29.218C132.962 29.386 132.734 29.6333 132.566 29.96C132.407 30.2867 132.328 30.702 132.328 31.206V35H130.578ZM149.922 35V33.488L149.824 33.166V30.52C149.824 30.0067 149.67 29.61 149.362 29.33C149.054 29.0407 148.587 28.896 147.962 28.896C147.542 28.896 147.127 28.9613 146.716 29.092C146.315 29.2227 145.974 29.4047 145.694 29.638L145.008 28.364C145.409 28.056 145.885 27.8273 146.436 27.678C146.996 27.5193 147.575 27.44 148.172 27.44C149.255 27.44 150.09 27.7013 150.678 28.224C151.275 28.7373 151.574 29.5353 151.574 30.618V35H149.922ZM147.57 35.098C147.01 35.098 146.52 35.0047 146.1 34.818C145.68 34.622 145.353 34.356 145.12 34.02C144.896 33.6747 144.784 33.2873 144.784 32.858C144.784 32.438 144.882 32.06 145.078 31.724C145.283 31.388 145.615 31.122 146.072 30.926C146.529 30.73 147.136 30.632 147.892 30.632H150.062V31.794H148.018C147.421 31.794 147.019 31.892 146.814 32.088C146.609 32.2747 146.506 32.508 146.506 32.788C146.506 33.1053 146.632 33.3573 146.884 33.544C147.136 33.7307 147.486 33.824 147.934 33.824C148.363 33.824 148.746 33.726 149.082 33.53C149.427 33.334 149.675 33.0447 149.824 32.662L150.118 33.712C149.95 34.1507 149.647 34.4913 149.208 34.734C148.779 34.9767 148.233 35.098 147.57 35.098ZM153.82 35V27.524H155.486V29.582L155.29 28.98C155.514 28.476 155.864 28.0933 156.34 27.832C156.825 27.5707 157.427 27.44 158.146 27.44V29.106C158.071 29.0873 158.001 29.078 157.936 29.078C157.871 29.0687 157.805 29.064 157.74 29.064C157.077 29.064 156.55 29.26 156.158 29.652C155.766 30.0347 155.57 30.6087 155.57 31.374V35H153.82ZM160.315 37.814C159.951 37.814 159.587 37.7533 159.223 37.632C158.859 37.5107 158.555 37.3427 158.313 37.128L159.013 35.84C159.19 35.9987 159.391 36.1247 159.615 36.218C159.839 36.3113 160.067 36.358 160.301 36.358C160.618 36.358 160.875 36.2787 161.071 36.12C161.267 35.9613 161.449 35.6953 161.617 35.322L162.051 34.342L162.191 34.132L165.019 27.524H166.699L163.199 35.602C162.965 36.162 162.704 36.6053 162.415 36.932C162.135 37.2587 161.817 37.4873 161.463 37.618C161.117 37.7487 160.735 37.814 160.315 37.814ZM161.855 35.266L158.481 27.524H160.301L163.045 33.978L161.855 35.266Z" fill="#0E1116"/>
<path d="M27.02 52L30.22 45H30.95L34.15 52H33.37L30.43 45.43H30.73L27.79 52H27.02ZM28.28 50.13L28.5 49.53H32.57L32.79 50.13H28.28ZM37.868 52.05C37.4146 52.05 37.0046 51.9467 36.638 51.74C36.2713 51.5267 35.978 51.2233 35.758 50.83C35.5446 50.43 35.438 49.9433 35.438 49.37C35.438 48.7967 35.5446 48.3133 35.758 47.92C35.9713 47.52 36.2613 47.2167 36.628 47.01C36.9946 46.8033 37.408 46.7 37.868 46.7C38.368 46.7 38.8146 46.8133 39.208 47.04C39.608 47.26 39.9213 47.5733 40.148 47.98C40.3746 48.38 40.488 48.8433 40.488 49.37C40.488 49.9033 40.3746 50.37 40.148 50.77C39.9213 51.17 39.608 51.4833 39.208 51.71C38.8146 51.9367 38.368 52.05 37.868 52.05ZM35.158 53.94V46.75H35.838V48.33L35.768 49.38L35.868 50.44V53.94H35.158ZM37.818 51.42C38.1913 51.42 38.5246 51.3367 38.818 51.17C39.1113 50.9967 39.3446 50.7567 39.518 50.45C39.6913 50.1367 39.778 49.7767 39.778 49.37C39.778 48.9633 39.6913 48.6067 39.518 48.3C39.3446 47.9933 39.1113 47.7533 38.818 47.58C38.5246 47.4067 38.1913 47.32 37.818 47.32C37.4446 47.32 37.108 47.4067 36.808 47.58C36.5146 47.7533 36.2813 47.9933 36.108 48.3C35.9413 48.6067 35.858 48.9633 35.858 49.37C35.858 49.7767 35.9413 50.1367 36.108 50.45C36.2813 50.7567 36.5146 50.9967 36.808 51.17C37.108 51.3367 37.4446 51.42 37.818 51.42ZM41.9353 52V46.75H42.6153V48.18L42.5453 47.93C42.692 47.53 42.9386 47.2267 43.2853 47.02C43.632 46.8067 44.062 46.7 44.5753 46.7V47.39C44.5486 47.39 44.522 47.39 44.4953 47.39C44.4686 47.3833 44.442 47.38 44.4153 47.38C43.862 47.38 43.4286 47.55 43.1153 47.89C42.802 48.2233 42.6453 48.7 42.6453 49.32V52H41.9353ZM49.3162 52V45.3L49.6362 45.64H47.6662V45H50.0362V52H49.3162ZM52.2495 52.05C52.1028 52.05 51.9761 51.9967 51.8695 51.89C51.7695 51.7833 51.7195 51.6533 51.7195 51.5C51.7195 51.34 51.7695 51.21 51.8695 51.11C51.9761 51.01 52.1028 50.96 52.2495 50.96C52.3961 50.96 52.5195 51.01 52.6195 51.11C52.7261 51.21 52.7795 51.34 52.7795 51.5C52.7795 51.6533 52.7261 51.7833 52.6195 51.89C52.5195 51.9967 52.3961 52.05 52.2495 52.05ZM56.3158 52V51.49L59.2258 48.64C59.4924 48.38 59.6924 48.1533 59.8258 47.96C59.9591 47.76 60.0491 47.5733 60.0958 47.4C60.1424 47.2267 60.1658 47.0633 60.1658 46.91C60.1658 46.5033 60.0258 46.1833 59.7458 45.95C59.4724 45.7167 59.0658 45.6 58.5258 45.6C58.1124 45.6 57.7458 45.6633 57.4258 45.79C57.1124 45.9167 56.8424 46.1133 56.6158 46.38L56.1058 45.94C56.3791 45.62 56.7291 45.3733 57.1558 45.2C57.5824 45.0267 58.0591 44.94 58.5858 44.94C59.0591 44.94 59.4691 45.0167 59.8158 45.17C60.1624 45.3167 60.4291 45.5333 60.6158 45.82C60.8091 46.1067 60.9058 46.4433 60.9058 46.83C60.9058 47.0567 60.8724 47.28 60.8058 47.5C60.7458 47.72 60.6324 47.9533 60.4658 48.2C60.3058 48.44 60.0691 48.7133 59.7558 49.02L57.0858 51.64L56.8858 51.36H61.2258V52H56.3158ZM64.8998 52.06C64.3598 52.06 63.8798 51.92 63.4598 51.64C63.0398 51.3533 62.7098 50.9467 62.4698 50.42C62.2298 49.8867 62.1098 49.2467 62.1098 48.5C62.1098 47.7533 62.2298 47.1167 62.4698 46.59C62.7098 46.0567 63.0398 45.65 63.4598 45.37C63.8798 45.0833 64.3598 44.94 64.8998 44.94C65.4398 44.94 65.9198 45.0833 66.3398 45.37C66.7598 45.65 67.0898 46.0567 67.3298 46.59C67.5765 47.1167 67.6998 47.7533 67.6998 48.5C67.6998 49.2467 67.5765 49.8867 67.3298 50.42C67.0898 50.9467 66.7598 51.3533 66.3398 51.64C65.9198 51.92 65.4398 52.06 64.8998 52.06ZM64.8998 51.4C65.3132 51.4 65.6732 51.29 65.9798 51.07C66.2865 50.8433 66.5265 50.5167 66.6998 50.09C66.8732 49.6567 66.9598 49.1267 66.9598 48.5C66.9598 47.8733 66.8732 47.3467 66.6998 46.92C66.5265 46.4867 66.2865 46.16 65.9798 45.94C65.6732 45.7133 65.3132 45.6 64.8998 45.6C64.4998 45.6 64.1432 45.7133 63.8298 45.94C63.5165 46.16 63.2732 46.4867 63.0998 46.92C62.9265 47.3467 62.8398 47.8733 62.8398 48.5C62.8398 49.1267 62.9265 49.6567 63.0998 50.09C63.2732 50.5167 63.5165 50.8433 63.8298 51.07C64.1432 51.29 64.4998 51.4 64.8998 51.4ZM68.6009 52V51.49L71.5109 48.64C71.7776 48.38 71.9776 48.1533 72.1109 47.96C72.2443 47.76 72.3343 47.5733 72.3809 47.4C72.4276 47.2267 72.4509 47.0633 72.4509 46.91C72.4509 46.5033 72.3109 46.1833 72.0309 45.95C71.7576 45.7167 71.3509 45.6 70.8109 45.6C70.3976 45.6 70.0309 45.6633 69.7109 45.79C69.3976 45.9167 69.1276 46.1133 68.9009 46.38L68.3909 45.94C68.6643 45.62 69.0143 45.3733 69.4409 45.2C69.8676 45.0267 70.3443 44.94 70.8709 44.94C71.3443 44.94 71.7543 45.0167 72.1009 45.17C72.4476 45.3167 72.7143 45.5333 72.9009 45.82C73.0943 46.1067 73.1909 46.4433 73.1909 46.83C73.1909 47.0567 73.1576 47.28 73.0909 47.5C73.0309 47.72 72.9176 47.9533 72.7509 48.2C72.5909 48.44 72.3543 48.7133 72.0409 49.02L69.3709 51.64L69.1709 51.36H73.5109V52H68.6009ZM77.265 52.06C76.645 52.06 76.1217 51.9233 75.695 51.65C75.2683 51.37 74.945 50.97 74.725 50.45C74.505 49.9233 74.395 49.2933 74.395 48.56C74.395 47.7667 74.5283 47.1033 74.795 46.57C75.0683 46.03 75.445 45.6233 75.925 45.35C76.405 45.0767 76.9617 44.94 77.595 44.94C77.9083 44.94 78.2083 44.97 78.495 45.03C78.7817 45.09 79.035 45.1867 79.255 45.32L78.965 45.9C78.785 45.78 78.5783 45.6967 78.345 45.65C78.1117 45.5967 77.865 45.57 77.605 45.57C76.8517 45.57 76.2483 45.81 75.795 46.29C75.3483 46.77 75.125 47.4867 75.125 48.44C75.125 48.5867 75.1317 48.77 75.145 48.99C75.165 49.2033 75.205 49.4167 75.265 49.63L75.015 49.44C75.0883 49.0933 75.2317 48.8 75.445 48.56C75.6583 48.3133 75.925 48.1267 76.245 48C76.565 47.8733 76.915 47.81 77.295 47.81C77.7617 47.81 78.1717 47.8967 78.525 48.07C78.8783 48.2433 79.155 48.4867 79.355 48.8C79.555 49.1133 79.655 49.4833 79.655 49.91C79.655 50.3433 79.5517 50.7233 79.345 51.05C79.1383 51.37 78.8517 51.62 78.485 51.8C78.125 51.9733 77.7183 52.06 77.265 52.06ZM77.235 51.45C77.5683 51.45 77.8617 51.39 78.115 51.27C78.375 51.1433 78.5783 50.9667 78.725 50.74C78.8717 50.5067 78.945 50.2367 78.945 49.93C78.945 49.47 78.785 49.1033 78.465 48.83C78.1517 48.5567 77.725 48.42 77.185 48.42C76.825 48.42 76.5117 48.4867 76.245 48.62C75.9783 48.7533 75.7683 48.9367 75.615 49.17C75.4617 49.3967 75.385 49.6567 75.385 49.95C75.385 50.2033 75.455 50.4467 75.595 50.68C75.735 50.9067 75.9417 51.0933 76.215 51.24C76.495 51.38 76.835 51.45 77.235 51.45ZM80.6176 49.6V48.98H83.2376V49.6H80.6176ZM86.4731 52L89.6731 45H90.4031L93.6031 52H92.8231L89.8831 45.43H90.1831L87.2431 52H86.4731ZM87.7331 50.13L87.9531 49.53H92.0231L92.2431 50.13H87.7331ZM97.3211 52.05C96.8678 52.05 96.4578 51.9467 96.0911 51.74C95.7244 51.5267 95.4311 51.2233 95.2111 50.83C94.9978 50.43 94.8911 49.9433 94.8911 49.37C94.8911 48.7967 94.9978 48.3133 95.2111 47.92C95.4244 47.52 95.7144 47.2167 96.0811 47.01C96.4478 46.8033 96.8611 46.7 97.3211 46.7C97.8211 46.7 98.2678 46.8133 98.6611 47.04C99.0611 47.26 99.3744 47.5733 99.6011 47.98C99.8278 48.38 99.9411 48.8433 99.9411 49.37C99.9411 49.9033 99.8278 50.37 99.6011 50.77C99.3744 51.17 99.0611 51.4833 98.6611 51.71C98.2678 51.9367 97.8211 52.05 97.3211 52.05ZM94.6111 53.94V46.75H95.2911V48.33L95.2211 49.38L95.3211 50.44V53.94H94.6111ZM97.2711 51.42C97.6444 51.42 97.9778 51.3367 98.2711 51.17C98.5644 50.9967 98.7978 50.7567 98.9711 50.45C99.1444 50.1367 99.2311 49.7767 99.2311 49.37C99.2311 48.9633 99.1444 48.6067 98.9711 48.3C98.7978 47.9933 98.5644 47.7533 98.2711 47.58C97.9778 47.4067 97.6444 47.32 97.2711 47.32C96.8978 47.32 96.5611 47.4067 96.2611 47.58C95.9678 47.7533 95.7344 47.9933 95.5611 48.3C95.3944 48.6067 95.3111 48.9633 95.3111 49.37C95.3111 49.7767 95.3944 50.1367 95.5611 50.45C95.7344 50.7567 95.9678 50.9967 96.2611 51.17C96.5611 51.3367 96.8978 51.42 97.2711 51.42ZM101.388 52V46.75H102.068V48.18L101.998 47.93C102.145 47.53 102.392 47.2267 102.738 47.02C103.085 46.8067 103.515 46.7 104.028 46.7V47.39C104.002 47.39 103.975 47.39 103.948 47.39C103.922 47.3833 103.895 47.38 103.868 47.38C103.315 47.38 102.882 47.55 102.568 47.89C102.255 48.2233 102.098 48.7 102.098 49.32V52H101.388ZM109.639 52.06C109.133 52.06 108.653 51.98 108.199 51.82C107.753 51.6533 107.393 51.4333 107.119 51.16L107.469 50.59C107.696 50.8233 107.999 51.0167 108.379 51.17C108.766 51.3233 109.186 51.4 109.639 51.4C110.219 51.4 110.663 51.2733 110.969 51.02C111.283 50.7667 111.439 50.4267 111.439 50C111.439 49.5733 111.286 49.2333 110.979 48.98C110.679 48.7267 110.203 48.6 109.549 48.6H109.049V48.07L111.209 45.36L111.309 45.64H107.409V45H111.909V45.51L109.749 48.22L109.399 47.99H109.669C110.509 47.99 111.136 48.1767 111.549 48.55C111.969 48.9233 112.179 49.4033 112.179 49.99C112.179 50.3833 112.086 50.7367 111.899 51.05C111.713 51.3633 111.429 51.61 111.049 51.79C110.676 51.97 110.206 52.06 109.639 52.06ZM115.984 52.06C115.444 52.06 114.964 51.92 114.544 51.64C114.124 51.3533 113.794 50.9467 113.554 50.42C113.314 49.8867 113.194 49.2467 113.194 48.5C113.194 47.7533 113.314 47.1167 113.554 46.59C113.794 46.0567 114.124 45.65 114.544 45.37C114.964 45.0833 115.444 44.94 115.984 44.94C116.524 44.94 117.004 45.0833 117.424 45.37C117.844 45.65 118.174 46.0567 118.414 46.59C118.66 47.1167 118.784 47.7533 118.784 48.5C118.784 49.2467 118.66 49.8867 118.414 50.42C118.174 50.9467 117.844 51.3533 117.424 51.64C117.004 51.92 116.524 52.06 115.984 52.06ZM115.984 51.4C116.397 51.4 116.757 51.29 117.064 51.07C117.37 50.8433 117.61 50.5167 117.784 50.09C117.957 49.6567 118.044 49.1267 118.044 48.5C118.044 47.8733 117.957 47.3467 117.784 46.92C117.61 46.4867 117.37 46.16 117.064 45.94C116.757 45.7133 116.397 45.6 115.984 45.6C115.584 45.6 115.227 45.7133 114.914 45.94C114.6 46.16 114.357 46.4867 114.184 46.92C114.01 47.3467 113.924 47.8733 113.924 48.5C113.924 49.1267 114.01 49.6567 114.184 50.09C114.357 50.5167 114.6 50.8433 114.914 51.07C115.227 51.29 115.584 51.4 115.984 51.4ZM119.748 53.46L120.188 51.61L120.268 52.04C120.114 52.04 119.984 51.99 119.878 51.89C119.778 51.79 119.728 51.66 119.728 51.5C119.728 51.34 119.778 51.21 119.878 51.11C119.984 51.01 120.111 50.96 120.258 50.96C120.411 50.96 120.534 51.0133 120.628 51.12C120.728 51.2267 120.778 51.3533 120.778 51.5C120.778 51.5533 120.774 51.6067 120.768 51.66C120.761 51.7133 120.748 51.7733 120.728 51.84C120.708 51.9067 120.681 51.9867 120.648 52.08L120.228 53.46H119.748ZM124.314 52V51.49L127.224 48.64C127.49 48.38 127.69 48.1533 127.824 47.96C127.957 47.76 128.047 47.5733 128.094 47.4C128.14 47.2267 128.164 47.0633 128.164 46.91C128.164 46.5033 128.024 46.1833 127.744 45.95C127.47 45.7167 127.064 45.6 126.524 45.6C126.11 45.6 125.744 45.6633 125.424 45.79C125.11 45.9167 124.84 46.1133 124.614 46.38L124.104 45.94C124.377 45.62 124.727 45.3733 125.154 45.2C125.58 45.0267 126.057 44.94 126.584 44.94C127.057 44.94 127.467 45.0167 127.814 45.17C128.16 45.3167 128.427 45.5333 128.614 45.82C128.807 46.1067 128.904 46.4433 128.904 46.83C128.904 47.0567 128.87 47.28 128.804 47.5C128.744 47.72 128.63 47.9533 128.464 48.2C128.304 48.44 128.067 48.7133 127.754 49.02L125.084 51.64L124.884 51.36H129.224V52H124.314ZM132.898 52.06C132.358 52.06 131.878 51.92 131.458 51.64C131.038 51.3533 130.708 50.9467 130.468 50.42C130.228 49.8867 130.108 49.2467 130.108 48.5C130.108 47.7533 130.228 47.1167 130.468 46.59C130.708 46.0567 131.038 45.65 131.458 45.37C131.878 45.0833 132.358 44.94 132.898 44.94C133.438 44.94 133.918 45.0833 134.338 45.37C134.758 45.65 135.088 46.0567 135.328 46.59C135.575 47.1167 135.698 47.7533 135.698 48.5C135.698 49.2467 135.575 49.8867 135.328 50.42C135.088 50.9467 134.758 51.3533 134.338 51.64C133.918 51.92 133.438 52.06 132.898 52.06ZM132.898 51.4C133.311 51.4 133.671 51.29 133.978 51.07C134.285 50.8433 134.525 50.5167 134.698 50.09C134.871 49.6567 134.958 49.1267 134.958 48.5C134.958 47.8733 134.871 47.3467 134.698 46.92C134.525 46.4867 134.285 46.16 133.978 45.94C133.671 45.7133 133.311 45.6 132.898 45.6C132.498 45.6 132.141 45.7133 131.828 45.94C131.515 46.16 131.271 46.4867 131.098 46.92C130.925 47.3467 130.838 47.8733 130.838 48.5C130.838 49.1267 130.925 49.6567 131.098 50.09C131.271 50.5167 131.515 50.8433 131.828 51.07C132.141 51.29 132.498 51.4 132.898 51.4ZM136.599 52V51.49L139.509 48.64C139.776 48.38 139.976 48.1533 140.109 47.96C140.242 47.76 140.332 47.5733 140.379 47.4C140.426 47.2267 140.449 47.0633 140.449 46.91C140.449 46.5033 140.309 46.1833 140.029 45.95C139.756 45.7167 139.349 45.6 138.809 45.6C138.396 45.6 138.029 45.6633 137.709 45.79C137.396 45.9167 137.126 46.1133 136.899 46.38L136.389 45.94C136.662 45.62 137.012 45.3733 137.439 45.2C137.866 45.0267 138.342 44.94 138.869 44.94C139.342 44.94 139.752 45.0167 140.099 45.17C140.446 45.3167 140.712 45.5333 140.899 45.82C141.092 46.1067 141.189 46.4433 141.189 46.83C141.189 47.0567 141.156 47.28 141.089 47.5C141.029 47.72 140.916 47.9533 140.749 48.2C140.589 48.44 140.352 48.7133 140.039 49.02L137.369 51.64L137.169 51.36H141.509V52H136.599ZM145.263 52.06C144.643 52.06 144.12 51.9233 143.693 51.65C143.266 51.37 142.943 50.97 142.723 50.45C142.503 49.9233 142.393 49.2933 142.393 48.56C142.393 47.7667 142.526 47.1033 142.793 46.57C143.066 46.03 143.443 45.6233 143.923 45.35C144.403 45.0767 144.96 44.94 145.593 44.94C145.906 44.94 146.206 44.97 146.493 45.03C146.78 45.09 147.033 45.1867 147.253 45.32L146.963 45.9C146.783 45.78 146.576 45.6967 146.343 45.65C146.11 45.5967 145.863 45.57 145.603 45.57C144.85 45.57 144.246 45.81 143.793 46.29C143.346 46.77 143.123 47.4867 143.123 48.44C143.123 48.5867 143.13 48.77 143.143 48.99C143.163 49.2033 143.203 49.4167 143.263 49.63L143.013 49.44C143.086 49.0933 143.23 48.8 143.443 48.56C143.656 48.3133 143.923 48.1267 144.243 48C144.563 47.8733 144.913 47.81 145.293 47.81C145.76 47.81 146.17 47.8967 146.523 48.07C146.876 48.2433 147.153 48.4867 147.353 48.8C147.553 49.1133 147.653 49.4833 147.653 49.91C147.653 50.3433 147.55 50.7233 147.343 51.05C147.136 51.37 146.85 51.62 146.483 51.8C146.123 51.9733 145.716 52.06 145.263 52.06ZM145.233 51.45C145.566 51.45 145.86 51.39 146.113 51.27C146.373 51.1433 146.576 50.9667 146.723 50.74C146.87 50.5067 146.943 50.2367 146.943 49.93C146.943 49.47 146.783 49.1033 146.463 48.83C146.15 48.5567 145.723 48.42 145.183 48.42C144.823 48.42 144.51 48.4867 144.243 48.62C143.976 48.7533 143.766 48.9367 143.613 49.17C143.46 49.3967 143.383 49.6567 143.383 49.95C143.383 50.2033 143.453 50.4467 143.593 50.68C143.733 50.9067 143.94 51.0933 144.213 51.24C144.493 51.38 144.833 51.45 145.233 51.45Z" fill="#A8A3A3"/>
<rect x="22" y="72" width="18" height="87" rx="9" fill="#90A6E0"/>
<rect x="48" y="109" width="18" height="61" rx="9" fill="#C1F8FB"/>
<line x1="83.5" y1="73" x2="83.5" y2="205" stroke="#BBBBBB" stroke-dasharray="6 6"/>
<rect x="68" y="104" width="31" height="20" rx="5" fill="white" fill-opacity="0.64"/>
<path d="M73.86 118.1C73.3067 118.1 72.8067 117.96 72.36 117.68C71.92 117.4 71.5733 116.993 71.32 116.46C71.0667 115.92 70.94 115.267 70.94 114.5C70.94 113.733 71.0667 113.083 71.32 112.55C71.5733 112.01 71.92 111.6 72.36 111.32C72.8067 111.04 73.3067 110.9 73.86 110.9C74.42 110.9 74.92 111.04 75.36 111.32C75.8 111.6 76.1467 112.01 76.4 112.55C76.66 113.083 76.79 113.733 76.79 114.5C76.79 115.267 76.66 115.92 76.4 116.46C76.1467 116.993 75.8 117.4 75.36 117.68C74.92 117.96 74.42 118.1 73.86 118.1ZM73.86 116.97C74.1867 116.97 74.47 116.883 74.71 116.71C74.95 116.53 75.1367 116.257 75.27 115.89C75.41 115.523 75.48 115.06 75.48 114.5C75.48 113.933 75.41 113.47 75.27 113.11C75.1367 112.743 74.95 112.473 74.71 112.3C74.47 112.12 74.1867 112.03 73.86 112.03C73.5467 112.03 73.2667 112.12 73.02 112.3C72.78 112.473 72.59 112.743 72.45 113.11C72.3167 113.47 72.25 113.933 72.25 114.5C72.25 115.06 72.3167 115.523 72.45 115.89C72.59 116.257 72.78 116.53 73.02 116.71C73.2667 116.883 73.5467 116.97 73.86 116.97ZM78.3313 118.07C78.1047 118.07 77.9113 117.993 77.7513 117.84C77.5913 117.68 77.5113 117.48 77.5113 117.24C77.5113 116.987 77.5913 116.787 77.7513 116.64C77.9113 116.487 78.1047 116.41 78.3313 116.41C78.558 116.41 78.7513 116.487 78.9113 116.64C79.0713 116.787 79.1513 116.987 79.1513 117.24C79.1513 117.48 79.0713 117.68 78.9113 117.84C78.7513 117.993 78.558 118.07 78.3313 118.07ZM79.8537 116.41V115.51L83.3037 111H84.6937L81.2937 115.51L80.6437 115.31H86.1937V116.41H79.8537ZM83.6937 118V116.41L83.7337 115.31V113.9H84.9537V118H83.6937ZM87.418 118L92.198 111H93.178L88.398 118H87.418ZM87.998 114.77C87.6714 114.77 87.3814 114.69 87.128 114.53C86.8747 114.37 86.678 114.147 86.538 113.86C86.398 113.573 86.328 113.237 86.328 112.85C86.328 112.463 86.398 112.127 86.538 111.84C86.678 111.553 86.8747 111.33 87.128 111.17C87.3814 111.01 87.6714 110.93 87.998 110.93C88.338 110.93 88.6314 111.01 88.878 111.17C89.1314 111.33 89.328 111.553 89.468 111.84C89.608 112.12 89.678 112.457 89.678 112.85C89.678 113.237 89.608 113.573 89.468 113.86C89.328 114.147 89.1314 114.37 88.878 114.53C88.6314 114.69 88.338 114.77 87.998 114.77ZM87.998 114.07C88.2714 114.07 88.4814 113.967 88.628 113.76C88.7814 113.547 88.858 113.243 88.858 112.85C88.858 112.457 88.7814 112.157 88.628 111.95C88.4814 111.737 88.2714 111.63 87.998 111.63C87.738 111.63 87.528 111.737 87.368 111.95C87.2147 112.163 87.138 112.463 87.138 112.85C87.138 113.237 87.2147 113.537 87.368 113.75C87.528 113.963 87.738 114.07 87.998 114.07ZM92.588 118.07C92.2614 118.07 91.9714 117.99 91.718 117.83C91.4647 117.67 91.268 117.447 91.128 117.16C90.988 116.873 90.918 116.537 90.918 116.15C90.918 115.763 90.988 115.427 91.128 115.14C91.268 114.853 91.4647 114.63 91.718 114.47C91.9714 114.31 92.2614 114.23 92.588 114.23C92.928 114.23 93.2214 114.31 93.468 114.47C93.7214 114.63 93.918 114.853 94.058 115.14C94.198 115.427 94.268 115.763 94.268 116.15C94.268 116.537 94.198 116.873 94.058 117.16C93.918 117.447 93.7214 117.67 93.468 117.83C93.2214 117.99 92.928 118.07 92.588 118.07ZM92.588 117.37C92.8547 117.37 93.0647 117.263 93.218 117.05C93.3714 116.837 93.448 116.537 93.448 116.15C93.448 115.763 93.3714 115.463 93.218 115.25C93.0647 115.037 92.8547 114.93 92.588 114.93C92.328 114.93 92.118 115.037 91.958 115.25C91.8047 115.457 91.728 115.757 91.728 116.15C91.728 116.543 91.8047 116.847 91.958 117.06C92.118 117.267 92.328 117.37 92.588 117.37Z" fill="#0E1116"/>
<rect x="174" y="91" width="31" height="20" rx="5" fill="white" fill-opacity="0.64"/>
<path d="M180.36 105.1C179.807 105.1 179.307 104.96 178.86 104.68C178.42 104.4 178.073 103.993 177.82 103.46C177.567 102.92 177.44 102.267 177.44 101.5C177.44 100.733 177.567 100.083 177.82 99.55C178.073 99.01 178.42 98.6 178.86 98.32C179.307 98.04 179.807 97.9 180.36 97.9C180.92 97.9 181.42 98.04 181.86 98.32C182.3 98.6 182.647 99.01 182.9 99.55C183.16 100.083 183.29 100.733 183.29 101.5C183.29 102.267 183.16 102.92 182.9 103.46C182.647 103.993 182.3 104.4 181.86 104.68C181.42 104.96 180.92 105.1 180.36 105.1ZM180.36 103.97C180.687 103.97 180.97 103.883 181.21 103.71C181.45 103.53 181.637 103.257 181.77 102.89C181.91 102.523 181.98 102.06 181.98 101.5C181.98 100.933 181.91 100.47 181.77 100.11C181.637 99.7433 181.45 99.4733 181.21 99.3C180.97 99.12 180.687 99.03 180.36 99.03C180.047 99.03 179.767 99.12 179.52 99.3C179.28 99.4733 179.09 99.7433 178.95 100.11C178.817 100.47 178.75 100.933 178.75 101.5C178.75 102.06 178.817 102.523 178.95 102.89C179.09 103.257 179.28 103.53 179.52 103.71C179.767 103.883 180.047 103.97 180.36 103.97ZM184.831 105.07C184.605 105.07 184.411 104.993 184.251 104.84C184.091 104.68 184.011 104.48 184.011 104.24C184.011 103.987 184.091 103.787 184.251 103.64C184.411 103.487 184.605 103.41 184.831 103.41C185.058 103.41 185.251 103.487 185.411 103.64C185.571 103.787 185.651 103.987 185.651 104.24C185.651 104.48 185.571 104.68 185.411 104.84C185.251 104.993 185.058 105.07 184.831 105.07ZM189.406 105.1C188.772 105.1 188.229 104.967 187.776 104.7C187.322 104.427 186.976 104.033 186.736 103.52C186.496 103.007 186.376 102.373 186.376 101.62C186.376 100.82 186.519 100.143 186.806 99.59C187.099 99.0367 187.502 98.6167 188.016 98.33C188.536 98.0433 189.132 97.9 189.806 97.9C190.159 97.9 190.496 97.9367 190.816 98.01C191.142 98.0833 191.419 98.1967 191.646 98.35L191.166 99.33C190.972 99.2033 190.762 99.1167 190.536 99.07C190.316 99.0167 190.082 98.99 189.836 98.99C189.176 98.99 188.652 99.1933 188.266 99.6C187.879 100.007 187.686 100.607 187.686 101.4C187.686 101.527 187.689 101.677 187.696 101.85C187.702 102.017 187.726 102.187 187.766 102.36L187.366 101.92C187.486 101.647 187.649 101.42 187.856 101.24C188.069 101.053 188.319 100.913 188.606 100.82C188.899 100.727 189.216 100.68 189.556 100.68C190.016 100.68 190.426 100.77 190.786 100.95C191.146 101.123 191.432 101.373 191.646 101.7C191.859 102.02 191.966 102.397 191.966 102.83C191.966 103.29 191.852 103.69 191.626 104.03C191.399 104.37 191.092 104.633 190.706 104.82C190.319 105.007 189.886 105.1 189.406 105.1ZM189.336 104.08C189.602 104.08 189.839 104.033 190.046 103.94C190.252 103.84 190.412 103.7 190.526 103.52C190.646 103.34 190.706 103.13 190.706 102.89C190.706 102.523 190.579 102.233 190.326 102.02C190.072 101.807 189.732 101.7 189.306 101.7C189.026 101.7 188.779 101.753 188.566 101.86C188.359 101.96 188.192 102.1 188.066 102.28C187.946 102.46 187.886 102.667 187.886 102.9C187.886 103.113 187.942 103.31 188.056 103.49C188.169 103.67 188.332 103.813 188.546 103.92C188.766 104.027 189.029 104.08 189.336 104.08ZM193.43 105L198.21 98H199.19L194.41 105H193.43ZM194.01 101.77C193.683 101.77 193.393 101.69 193.14 101.53C192.886 101.37 192.69 101.147 192.55 100.86C192.41 100.573 192.34 100.237 192.34 99.85C192.34 99.4633 192.41 99.1267 192.55 98.84C192.69 98.5533 192.886 98.33 193.14 98.17C193.393 98.01 193.683 97.93 194.01 97.93C194.35 97.93 194.643 98.01 194.89 98.17C195.143 98.33 195.34 98.5533 195.48 98.84C195.62 99.12 195.69 99.4567 195.69 99.85C195.69 100.237 195.62 100.573 195.48 100.86C195.34 101.147 195.143 101.37 194.89 101.53C194.643 101.69 194.35 101.77 194.01 101.77ZM194.01 101.07C194.283 101.07 194.493 100.967 194.64 100.76C194.793 100.547 194.87 100.243 194.87 99.85C194.87 99.4567 194.793 99.1567 194.64 98.95C194.493 98.7367 194.283 98.63 194.01 98.63C193.75 98.63 193.54 98.7367 193.38 98.95C193.226 99.1633 193.15 99.4633 193.15 99.85C193.15 100.237 193.226 100.537 193.38 100.75C193.54 100.963 193.75 101.07 194.01 101.07ZM198.6 105.07C198.273 105.07 197.983 104.99 197.73 104.83C197.476 104.67 197.28 104.447 197.14 104.16C197 103.873 196.93 103.537 196.93 103.15C196.93 102.763 197 102.427 197.14 102.14C197.28 101.853 197.476 101.63 197.73 101.47C197.983 101.31 198.273 101.23 198.6 101.23C198.94 101.23 199.233 101.31 199.48 101.47C199.733 101.63 199.93 101.853 200.07 102.14C200.21 102.427 200.28 102.763 200.28 103.15C200.28 103.537 200.21 103.873 200.07 104.16C199.93 104.447 199.733 104.67 199.48 104.83C199.233 104.99 198.94 105.07 198.6 105.07ZM198.6 104.37C198.866 104.37 199.076 104.263 199.23 104.05C199.383 103.837 199.46 103.537 199.46 103.15C199.46 102.763 199.383 102.463 199.23 102.25C199.076 102.037 198.866 101.93 198.6 101.93C198.34 101.93 198.13 102.037 197.97 102.25C197.816 102.457 197.74 102.757 197.74 103.15C197.74 103.543 197.816 103.847 197.97 104.06C198.13 104.267 198.34 104.37 198.6 104.37Z" fill="#0E1116"/>
<rect x="100" y="102" width="18" height="57" rx="9" fill="#90A6E0"/>
<rect x="126" y="92" width="18" height="78" rx="9" fill="#C1F8FB"/>
<line x1="161.5" y1="73" x2="161.5" y2="205" stroke="#BBBBBB" stroke-dasharray="6 6"/>
<rect x="178" y="136" width="18" height="34" rx="9" fill="#90A6E0"/>
<rect x="204" y="121" width="18" height="49" rx="9" fill="#C1F8FB"/>
<line x1="239.5" y1="73" x2="239.5" y2="205" stroke="#BBBBBB" stroke-dasharray="6 6"/>
<rect x="256" y="81" width="18" height="78" rx="9" fill="#90A6E0"/>
<rect x="282" y="89" width="18" height="61" rx="9" fill="#C1F8FB"/>
<line x1="317.5" y1="73" x2="317.5" y2="205" stroke="#BBBBBB" stroke-dasharray="6 6"/>
<rect x="334" y="84" width="18" height="75" rx="9" fill="#90A6E0"/>
<rect x="360" y="93" width="18" height="77" rx="9" fill="#C1F8FB"/>
<rect x="304" y="86" width="31" height="20" rx="5" fill="white" fill-opacity="0.64"/>
<path d="M310.36 100.1C309.807 100.1 309.307 99.96 308.86 99.68C308.42 99.4 308.073 98.9933 307.82 98.46C307.567 97.92 307.44 97.2667 307.44 96.5C307.44 95.7333 307.567 95.0833 307.82 94.55C308.073 94.01 308.42 93.6 308.86 93.32C309.307 93.04 309.807 92.9 310.36 92.9C310.92 92.9 311.42 93.04 311.86 93.32C312.3 93.6 312.647 94.01 312.9 94.55C313.16 95.0833 313.29 95.7333 313.29 96.5C313.29 97.2667 313.16 97.92 312.9 98.46C312.647 98.9933 312.3 99.4 311.86 99.68C311.42 99.96 310.92 100.1 310.36 100.1ZM310.36 98.97C310.687 98.97 310.97 98.8833 311.21 98.71C311.45 98.53 311.637 98.2567 311.77 97.89C311.91 97.5233 311.98 97.06 311.98 96.5C311.98 95.9333 311.91 95.47 311.77 95.11C311.637 94.7433 311.45 94.4733 311.21 94.3C310.97 94.12 310.687 94.03 310.36 94.03C310.047 94.03 309.767 94.12 309.52 94.3C309.28 94.4733 309.09 94.7433 308.95 95.11C308.817 95.47 308.75 95.9333 308.75 96.5C308.75 97.06 308.817 97.5233 308.95 97.89C309.09 98.2567 309.28 98.53 309.52 98.71C309.767 98.8833 310.047 98.97 310.36 98.97ZM314.831 100.07C314.605 100.07 314.411 99.9933 314.251 99.84C314.091 99.68 314.011 99.48 314.011 99.24C314.011 98.9867 314.091 98.7867 314.251 98.64C314.411 98.4867 314.605 98.41 314.831 98.41C315.058 98.41 315.251 98.4867 315.411 98.64C315.571 98.7867 315.651 98.9867 315.651 99.24C315.651 99.48 315.571 99.68 315.411 99.84C315.251 99.9933 315.058 100.07 314.831 100.07ZM318.813 100.1C318.319 100.1 317.836 100.03 317.363 99.89C316.896 99.7433 316.503 99.5433 316.183 99.29L316.733 98.28C316.986 98.4867 317.293 98.6533 317.653 98.78C318.019 98.9067 318.399 98.97 318.793 98.97C319.253 98.97 319.613 98.8733 319.873 98.68C320.139 98.4867 320.273 98.2267 320.273 97.9C320.273 97.68 320.216 97.4867 320.103 97.32C319.996 97.1533 319.803 97.0267 319.523 96.94C319.249 96.8533 318.873 96.81 318.393 96.81H316.703L317.063 93H321.173V94.09H317.543L318.223 93.47L317.953 96.32L317.273 95.71H318.683C319.376 95.71 319.933 95.8033 320.353 95.99C320.779 96.17 321.089 96.4233 321.283 96.75C321.483 97.07 321.583 97.4367 321.583 97.85C321.583 98.2567 321.483 98.63 321.283 98.97C321.083 99.31 320.776 99.5833 320.363 99.79C319.956 99.9967 319.439 100.1 318.813 100.1ZM323.215 100L327.995 93H328.975L324.195 100H323.215ZM323.795 96.77C323.468 96.77 323.178 96.69 322.925 96.53C322.672 96.37 322.475 96.1467 322.335 95.86C322.195 95.5733 322.125 95.2367 322.125 94.85C322.125 94.4633 322.195 94.1267 322.335 93.84C322.475 93.5533 322.672 93.33 322.925 93.17C323.178 93.01 323.468 92.93 323.795 92.93C324.135 92.93 324.428 93.01 324.675 93.17C324.928 93.33 325.125 93.5533 325.265 93.84C325.405 94.12 325.475 94.4567 325.475 94.85C325.475 95.2367 325.405 95.5733 325.265 95.86C325.125 96.1467 324.928 96.37 324.675 96.53C324.428 96.69 324.135 96.77 323.795 96.77ZM323.795 96.07C324.068 96.07 324.278 95.9667 324.425 95.76C324.578 95.5467 324.655 95.2433 324.655 94.85C324.655 94.4567 324.578 94.1567 324.425 93.95C324.278 93.7367 324.068 93.63 323.795 93.63C323.535 93.63 323.325 93.7367 323.165 93.95C323.012 94.1633 322.935 94.4633 322.935 94.85C322.935 95.2367 323.012 95.5367 323.165 95.75C323.325 95.9633 323.535 96.07 323.795 96.07ZM328.385 100.07C328.058 100.07 327.768 99.99 327.515 99.83C327.262 99.67 327.065 99.4467 326.925 99.16C326.785 98.8733 326.715 98.5367 326.715 98.15C326.715 97.7633 326.785 97.4267 326.925 97.14C327.065 96.8533 327.262 96.63 327.515 96.47C327.768 96.31 328.058 96.23 328.385 96.23C328.725 96.23 329.018 96.31 329.265 96.47C329.518 96.63 329.715 96.8533 329.855 97.14C329.995 97.4267 330.065 97.7633 330.065 98.15C330.065 98.5367 329.995 98.8733 329.855 99.16C329.715 99.4467 329.518 99.67 329.265 99.83C329.018 99.99 328.725 100.07 328.385 100.07ZM328.385 99.37C328.652 99.37 328.862 99.2633 329.015 99.05C329.168 98.8367 329.245 98.5367 329.245 98.15C329.245 97.7633 329.168 97.4633 329.015 97.25C328.862 97.0367 328.652 96.93 328.385 96.93C328.125 96.93 327.915 97.0367 327.755 97.25C327.602 97.4567 327.525 97.7567 327.525 98.15C327.525 98.5433 327.602 98.8467 327.755 99.06C327.915 99.2667 328.125 99.37 328.385 99.37Z" fill="#0E1116"/>
<path d="M22 98L77.9038 131.143C87.0616 136.572 97.7133 138.937 108.308 137.892L153.807 133.406C159.884 132.807 165.8 131.1 171.262 128.369L196.363 115.819C205.252 111.374 215.265 109.679 225.122 110.951L230.31 111.621C237.303 112.523 243.916 115.321 249.433 119.712C259.479 127.708 272.841 130.193 285.09 126.343L300.5 121.5L338.951 110.191C341.599 109.412 344.411 109.376 347.078 110.087C353.548 111.813 360.381 109.056 363.843 103.323L374 86.5" stroke="white" stroke-linecap="round"/>
<path d="M22 141L102.286 130.907C107.07 130.305 111.742 129.015 116.157 127.076L146.194 113.882C156.841 109.205 169.017 109.508 179.418 114.709L198.442 124.221C205.061 127.531 213.108 125.436 217.273 119.318C222.024 112.34 231.644 110.751 238.387 115.83L247.84 122.951C257.58 130.287 271.103 129.892 280.397 121.998L283.696 119.197C294.028 110.421 308.819 109.247 320.406 116.282L331.941 123.285C339.006 127.575 347.515 128.796 355.501 126.666C357.164 126.223 358.786 125.639 360.35 124.92L376.5 117.5" stroke="#7692DA" stroke-linecap="round"/>
<circle cx="83" cy="133" r="2.5" fill="white" stroke="#BBBBBB"/>
<circle cx="189" cy="120" r="2.5" fill="white" stroke="#BBBBBB"/>
<circle cx="318" cy="116" r="2.5" fill="white" stroke="#BBBBBB"/>
<g clip-path="url(#clip0_621_867)">
<path fill-rule="evenodd" clip-rule="evenodd" d="M318.503 26.9947H320.01V26.166C320.01 26.0477 320.106 25.9512 320.224 25.9512H320.709C320.827 25.9512 320.923 26.0477 320.923 26.166V26.9947H324.077V26.166C324.077 26.0477 324.173 25.9512 324.291 25.9512H324.776C324.894 25.9512 324.99 26.0477 324.99 26.166V26.9947H326.497C327.076 26.9947 327.549 27.4672 327.549 28.0465V28.7204H317.451V28.0465C317.451 27.4672 317.924 26.9947 318.503 26.9947ZM327.549 29.2361V34.997C327.549 35.5763 327.076 36.0488 326.497 36.0488H318.503C317.924 36.0488 317.451 35.5763 317.451 34.997V29.2361H327.549ZM319.133 30.4933V31.7981H320.438V30.4933H319.133ZM319.133 33.229V34.5338H320.438V33.229H319.133ZM324.562 33.229V34.5338H325.867V33.229H324.562ZM321.848 33.229V34.5338H323.152V33.229H321.848ZM324.562 30.4933V31.7981H325.867V30.4933H324.562ZM321.848 30.4933V31.7981H323.152V30.4933H321.848Z" fill="#90A6E0"/>
</g>
<path d="M332.95 35L336.1 28H337.38L340.54 35H339.18L336.47 28.69H336.99L334.29 35H332.95ZM334.4 33.38L334.75 32.36H338.53L338.88 33.38H334.4ZM344.27 35.07C343.837 35.07 343.44 34.97 343.08 34.77C342.727 34.57 342.444 34.27 342.23 33.87C342.024 33.4633 341.92 32.95 341.92 32.33C341.92 31.7033 342.02 31.19 342.22 30.79C342.427 30.39 342.707 30.0933 343.06 29.9C343.414 29.7 343.817 29.6 344.27 29.6C344.797 29.6 345.26 29.7133 345.66 29.94C346.067 30.1667 346.387 30.4833 346.62 30.89C346.86 31.2967 346.98 31.7767 346.98 32.33C346.98 32.8833 346.86 33.3667 346.62 33.78C346.387 34.1867 346.067 34.5033 345.66 34.73C345.26 34.9567 344.797 35.07 344.27 35.07ZM341.31 36.94V29.66H342.5V30.92L342.46 32.34L342.56 33.76V36.94H341.31ZM344.13 34C344.43 34 344.697 33.9333 344.93 33.8C345.17 33.6667 345.36 33.4733 345.5 33.22C345.64 32.9667 345.71 32.67 345.71 32.33C345.71 31.9833 345.64 31.6867 345.5 31.44C345.36 31.1867 345.17 30.9933 344.93 30.86C344.697 30.7267 344.43 30.66 344.13 30.66C343.83 30.66 343.56 30.7267 343.32 30.86C343.08 30.9933 342.89 31.1867 342.75 31.44C342.61 31.6867 342.54 31.9833 342.54 32.33C342.54 32.67 342.61 32.9667 342.75 33.22C342.89 33.4733 343.08 33.6667 343.32 33.8C343.56 33.9333 343.83 34 344.13 34ZM348.166 35V29.66H349.356V31.13L349.216 30.7C349.376 30.34 349.626 30.0667 349.966 29.88C350.312 29.6933 350.742 29.6 351.256 29.6V30.79C351.202 30.7767 351.152 30.77 351.106 30.77C351.059 30.7633 351.012 30.76 350.966 30.76C350.492 30.76 350.116 30.9 349.836 31.18C349.556 31.4533 349.416 31.8633 349.416 32.41V35H348.166ZM354.659 35V34.13L357.439 31.49C357.672 31.27 357.845 31.0767 357.959 30.91C358.072 30.7433 358.145 30.59 358.179 30.45C358.219 30.3033 358.239 30.1667 358.239 30.04C358.239 29.72 358.129 29.4733 357.909 29.3C357.689 29.12 357.365 29.03 356.939 29.03C356.599 29.03 356.289 29.09 356.009 29.21C355.735 29.33 355.499 29.5133 355.299 29.76L354.389 29.06C354.662 28.6933 355.029 28.41 355.489 28.21C355.955 28.0033 356.475 27.9 357.049 27.9C357.555 27.9 357.995 27.9833 358.369 28.15C358.749 28.31 359.039 28.54 359.239 28.84C359.445 29.14 359.549 29.4967 359.549 29.91C359.549 30.1367 359.519 30.3633 359.459 30.59C359.399 30.81 359.285 31.0433 359.119 31.29C358.952 31.5367 358.709 31.8133 358.389 32.12L355.999 34.39L355.729 33.9H359.819V35H354.659ZM363.489 35.1C362.936 35.1 362.436 34.96 361.989 34.68C361.549 34.4 361.202 33.9933 360.949 33.46C360.696 32.92 360.569 32.2667 360.569 31.5C360.569 30.7333 360.696 30.0833 360.949 29.55C361.202 29.01 361.549 28.6 361.989 28.32C362.436 28.04 362.936 27.9 363.489 27.9C364.049 27.9 364.549 28.04 364.989 28.32C365.429 28.6 365.776 29.01 366.029 29.55C366.289 30.0833 366.419 30.7333 366.419 31.5C366.419 32.2667 366.289 32.92 366.029 33.46C365.776 33.9933 365.429 34.4 364.989 34.68C364.549 34.96 364.049 35.1 363.489 35.1ZM363.489 33.97C363.816 33.97 364.099 33.8833 364.339 33.71C364.579 33.53 364.766 33.2567 364.899 32.89C365.039 32.5233 365.109 32.06 365.109 31.5C365.109 30.9333 365.039 30.47 364.899 30.11C364.766 29.7433 364.579 29.4733 364.339 29.3C364.099 29.12 363.816 29.03 363.489 29.03C363.176 29.03 362.896 29.12 362.649 29.3C362.409 29.4733 362.219 29.7433 362.079 30.11C361.946 30.47 361.879 30.9333 361.879 31.5C361.879 32.06 361.946 32.5233 362.079 32.89C362.219 33.2567 362.409 33.53 362.649 33.71C362.896 33.8833 363.176 33.97 363.489 33.97ZM367.198 35V34.13L369.978 31.49C370.211 31.27 370.384 31.0767 370.498 30.91C370.611 30.7433 370.684 30.59 370.718 30.45C370.758 30.3033 370.778 30.1667 370.778 30.04C370.778 29.72 370.668 29.4733 370.448 29.3C370.228 29.12 369.904 29.03 369.478 29.03C369.138 29.03 368.828 29.09 368.548 29.21C368.274 29.33 368.038 29.5133 367.838 29.76L366.928 29.06C367.201 28.6933 367.568 28.41 368.028 28.21C368.494 28.0033 369.014 27.9 369.588 27.9C370.094 27.9 370.534 27.9833 370.908 28.15C371.288 28.31 371.578 28.54 371.778 28.84C371.984 29.14 372.088 29.4967 372.088 29.91C372.088 30.1367 372.058 30.3633 371.998 30.59C371.938 30.81 371.824 31.0433 371.658 31.29C371.491 31.5367 371.248 31.8133 370.928 32.12L368.538 34.39L368.268 33.9H372.358V35H367.198ZM376.138 35.1C375.505 35.1 374.961 34.9667 374.508 34.7C374.055 34.4267 373.708 34.0333 373.468 33.52C373.228 33.0067 373.108 32.3733 373.108 31.62C373.108 30.82 373.251 30.1433 373.538 29.59C373.831 29.0367 374.235 28.6167 374.748 28.33C375.268 28.0433 375.865 27.9 376.538 27.9C376.891 27.9 377.228 27.9367 377.548 28.01C377.875 28.0833 378.151 28.1967 378.378 28.35L377.898 29.33C377.705 29.2033 377.495 29.1167 377.268 29.07C377.048 29.0167 376.815 28.99 376.568 28.99C375.908 28.99 375.385 29.1933 374.998 29.6C374.611 30.0067 374.418 30.6067 374.418 31.4C374.418 31.5267 374.421 31.6767 374.428 31.85C374.435 32.0167 374.458 32.1867 374.498 32.36L374.098 31.92C374.218 31.6467 374.381 31.42 374.588 31.24C374.801 31.0533 375.051 30.9133 375.338 30.82C375.631 30.7267 375.948 30.68 376.288 30.68C376.748 30.68 377.158 30.77 377.518 30.95C377.878 31.1233 378.165 31.3733 378.378 31.7C378.591 32.02 378.698 32.3967 378.698 32.83C378.698 33.29 378.585 33.69 378.358 34.03C378.131 34.37 377.825 34.6333 377.438 34.82C377.051 35.0067 376.618 35.1 376.138 35.1ZM376.068 34.08C376.335 34.08 376.571 34.0333 376.778 33.94C376.985 33.84 377.145 33.7 377.258 33.52C377.378 33.34 377.438 33.13 377.438 32.89C377.438 32.5233 377.311 32.2333 377.058 32.02C376.805 31.8067 376.465 31.7 376.038 31.7C375.758 31.7 375.511 31.7533 375.298 31.86C375.091 31.96 374.925 32.1 374.798 32.28C374.678 32.46 374.618 32.6667 374.618 32.9C374.618 33.1133 374.675 33.31 374.788 33.49C374.901 33.67 375.065 33.8133 375.278 33.92C375.498 34.0267 375.761 34.08 376.068 34.08Z" fill="#0E1116"/>
<defs>
<clipPath id="clip0_621_867">
<rect width="11" height="11" fill="white" transform="translate(317 25.5)"/>
</clipPath>
</defs>
</svg>
