<svg width="400" height="206" viewBox="0 0 400 206" fill="none" xmlns="http://www.w3.org/2000/svg">
<g clip-path="url(#clip0_621_873)">
<rect width="400" height="206" rx="16" fill="#0E1116"/>
<g filter="url(#filter0_f_621_873)">
<circle cx="200" cy="198" r="105" fill="#90A6E0"/>
<circle cx="200" cy="198" r="104.5" stroke="#77859D"/>
</g>
<circle cx="200" cy="198" r="104.5" fill="#0E1116" stroke="#77859D"/>
<g filter="url(#filter1_i_621_873)">
<circle cx="45.5" cy="156.5" r="30.5" fill="white" fill-opacity="0.03"/>
</g>
<path d="M45 145.48C41.736 145.48 39.144 148.072 39.144 151.336V153.928C37.704 153.928 36.552 155.176 36.552 156.616V165.832C36.552 167.272 37.8 168.52 39.24 168.52H50.76C52.2 168.52 53.448 167.272 53.448 165.832V156.616C53.448 155.176 52.296 154.024 50.856 153.928V151.336C50.856 148.072 48.264 145.48 45 145.48ZM46.632 164.008C46.632 164.2 46.632 164.296 46.536 164.488C46.44 164.584 46.248 164.68 46.152 164.68H43.848C43.656 164.68 43.56 164.584 43.464 164.488C43.368 164.392 43.272 164.2 43.368 164.008L43.752 161.512C43.272 161.128 42.984 160.552 42.984 159.976C42.984 158.824 43.848 157.96 45 157.96C46.056 157.96 47.016 158.824 47.016 159.976C47.016 160.552 46.728 161.128 46.248 161.512L46.632 164.008ZM48.936 153.928H41.064V151.336C41.064 149.128 42.792 147.4 45 147.4C47.208 147.4 48.936 149.128 48.936 151.336V153.928Z" fill="#90A6E0"/>
<g filter="url(#filter2_i_621_873)">
<circle cx="355.5" cy="156.5" r="30.5" fill="white" fill-opacity="0.03"/>
</g>
<g clip-path="url(#clip1_621_873)">
<path d="M363.438 145C361.499 145 359.922 146.577 359.922 148.516C359.922 149.231 360.139 149.942 360.508 150.498L357.934 153.072C357.291 152.591 356.533 152.269 355.703 152.149V149.089C356.52 148.798 357.109 148.025 357.109 147.109C357.109 145.946 356.163 145 355 145C353.837 145 352.891 145.946 352.891 147.109C352.891 148.025 353.48 148.798 354.297 149.089V152.149C353.467 152.269 352.709 152.591 352.066 153.072L349.68 150.685C349.927 150.267 350.078 149.786 350.078 149.266C350.078 147.715 348.817 146.453 347.266 146.453C345.715 146.453 344.453 147.715 344.453 149.266C344.453 150.817 345.715 152.078 347.266 152.078C347.786 152.078 348.267 151.927 348.685 151.68L351.072 154.066C350.591 154.709 350.269 155.467 350.149 156.297H347.089C346.798 155.48 346.025 154.891 345.109 154.891C343.946 154.891 343 155.837 343 157C343 158.163 343.946 159.109 345.109 159.109C346.025 159.109 346.798 158.52 347.089 157.703H350.149C350.46 159.85 352.15 161.54 354.297 161.851V163.428C353.087 163.742 352.188 164.834 352.188 166.141C352.188 167.692 353.449 169 355 169C356.551 169 357.812 167.692 357.812 166.141C357.812 164.834 356.913 163.742 355.703 163.428V161.851C356.948 161.67 358.032 161.028 358.794 160.097L361.383 162.162C361.349 162.312 361.328 162.466 361.328 162.625C361.328 163.788 362.274 164.734 363.438 164.734C364.601 164.734 365.547 163.788 365.547 162.625C365.547 161.462 364.601 160.516 363.438 160.516C362.948 160.516 362.503 160.69 362.145 160.971L359.541 158.894C359.785 158.31 359.922 157.671 359.922 157C359.922 155.897 359.544 154.888 358.928 154.066L361.502 151.492C362.058 151.861 362.722 152.078 363.438 152.078C365.376 152.078 367 150.454 367 148.516C367 146.577 365.376 145 363.438 145Z" fill="#90A6E0"/>
</g>
<g filter="url(#filter3_i_621_873)">
<circle cx="105.5" cy="76.5" r="30.5" fill="white" fill-opacity="0.03"/>
</g>
<path d="M99.75 78.5H95.25C94.8358 78.5 94.5 78.8358 94.5 79.25V86.75C94.5 87.1642 94.8358 87.5 95.25 87.5H99.75C100.164 87.5 100.5 87.1642 100.5 86.75V79.25C100.5 78.8358 100.164 78.5 99.75 78.5Z" fill="#90A6E0"/>
<path d="M114.75 72.5H110.25C109.836 72.5 109.5 72.8358 109.5 73.25V86.75C109.5 87.1642 109.836 87.5 110.25 87.5H114.75C115.164 87.5 115.5 87.1642 115.5 86.75V73.25C115.5 72.8358 115.164 72.5 114.75 72.5Z" fill="#90A6E0"/>
<path d="M107.25 66.5H102.75C102.336 66.5 102 66.8358 102 67.25V86.75C102 87.1642 102.336 87.5 102.75 87.5H107.25C107.664 87.5 108 87.1642 108 86.75V67.25C108 66.8358 107.664 66.5 107.25 66.5Z" fill="#90A6E0"/>
<g filter="url(#filter4_i_621_873)">
<circle cx="295.5" cy="76.5" r="30.5" fill="white" fill-opacity="0.03"/>
</g>
<path d="M302.75 66.75H287.25C285.593 66.75 284.25 68.0931 284.25 69.75V80.25C284.25 81.9069 285.593 83.25 287.25 83.25H302.75C304.407 83.25 305.75 81.9069 305.75 80.25V69.75C305.75 68.0931 304.407 66.75 302.75 66.75Z" fill="#90A6E0"/>
<path d="M298 84.25V86.5C298.017 86.6784 297.964 86.8564 297.852 86.9963C297.74 87.1362 297.578 87.2272 297.4 87.25H292.6C292.422 87.2272 292.26 87.1362 292.148 86.9963C292.036 86.8564 291.983 86.6784 292 86.5V84.25H298Z" fill="#90A6E0"/>
<path d="M300 87.25H290C289.801 87.25 289.61 87.171 289.47 87.0303C289.329 86.8897 289.25 86.6989 289.25 86.5C289.25 86.3011 289.329 86.1103 289.47 85.9697C289.61 85.829 289.801 85.75 290 85.75H300C300.199 85.75 300.39 85.829 300.53 85.9697C300.671 86.1103 300.75 86.3011 300.75 86.5C300.75 86.6989 300.671 86.8897 300.53 87.0303C300.39 87.171 300.199 87.25 300 87.25Z" fill="#90A6E0"/>
<g filter="url(#filter5_i_621_873)">
<circle cx="200.5" cy="45.5" r="30.5" fill="white" fill-opacity="0.03"/>
</g>
<g clip-path="url(#clip2_621_873)">
<path d="M196 41.9999C200.578 41.9999 203.999 40.19 203.999 38.5716C203.999 36.9533 200.578 35.1433 196 35.1433C191.421 35.1433 188 36.9533 188 38.5716C188 40.19 191.421 41.9999 196 41.9999Z" fill="#90A6E0"/>
<path d="M196 55.7137C196.668 55.7137 197.311 55.6749 197.923 55.6041C197.407 54.9413 196.981 54.2058 196.661 53.4159C196.442 53.4233 196.221 53.4284 195.999 53.4284C193.383 53.4284 190.906 52.9101 189.023 51.9688C188.653 51.7835 188.312 51.5844 188 51.3737V52.2855C188 53.9037 191.421 55.7137 196 55.7137Z" fill="#90A6E0"/>
<path d="M195.999 51.1426C196.023 51.1426 196.046 51.1422 196.069 51.1421C196.023 50.7675 195.998 50.386 195.998 49.9989C195.998 49.6119 196.022 49.2306 196.069 48.8564C196.046 48.8564 196.023 48.8572 195.999 48.8572C193.383 48.8572 190.906 48.3388 189.023 47.3976C188.653 47.2123 188.312 47.0132 188 46.8025V47.7142C188 49.3325 191.421 51.1426 195.999 51.1426Z" fill="#90A6E0"/>
<path d="M195.999 46.5711C196.226 46.5711 196.45 46.5665 196.671 46.5578C197.026 45.6874 197.51 44.8834 198.102 44.1704C197.417 44.2459 196.714 44.2859 195.999 44.2859C193.383 44.2859 190.906 43.7675 189.023 42.8263C188.653 42.6409 188.312 42.4418 188 42.2311V43.1429C188 44.7612 191.421 46.5711 195.999 46.5711Z" fill="#90A6E0"/>
<path d="M199.428 46.2104C198.934 46.9539 198.581 47.7988 198.407 48.7068C198.327 49.1254 198.284 49.5572 198.284 49.9988C198.284 50.3308 198.308 50.6572 198.354 50.9767C198.467 51.7616 198.713 52.5038 199.068 53.1799C199.441 53.8894 199.935 54.5261 200.522 55.0621C201.742 56.1762 203.364 56.8567 205.142 56.8567C208.924 56.8567 212 53.7802 212 49.9988C212 46.2172 208.924 43.1409 205.142 43.1409C204.751 43.1409 204.368 43.1742 203.995 43.2373C202.094 43.5588 200.456 44.6652 199.428 46.2104Z" fill="#90A6E0"/>
</g>
<g filter="url(#filter6_f_621_873)">
<ellipse cx="200" cy="231" rx="88" ry="51" fill="#77859D" fill-opacity="0.46"/>
</g>
<g filter="url(#filter7_d_621_873)">
<path d="M200.771 183.128C214.843 177.451 220.543 167.099 222.65 157.91H200.771V183.128Z" fill="#BAC8EC"/>
<path d="M176.313 144.241C176.118 147.155 176.106 151.208 176.889 155.676H198.538V130.078C195.21 130.124 191.916 130.366 188.669 130.838C187.103 134.488 183.568 140.487 176.313 144.241Z" fill="#BAC8EC"/>
<path d="M198.538 182.84V157.91H177.35C179.434 166.938 184.973 177.106 198.538 182.84Z" fill="#BAC8EC"/>
<path d="M230.757 138.864C220.508 135.755 217.825 126.853 217.227 124.101C205.378 121.844 193.782 121.833 182.762 124.09C182.175 126.83 179.491 135.755 169.231 138.864C168.276 144.322 163.555 179.708 200 191.569C236.434 179.708 231.724 144.322 230.757 138.864ZM225.287 156.793C225.287 157.046 225.195 157.265 225.045 157.449C222.95 167.675 216.789 179.57 200.38 185.684C200.253 185.73 200.127 185.753 199.988 185.753C199.931 185.753 199.862 185.73 199.804 185.719C199.747 185.73 199.701 185.753 199.643 185.753C199.309 185.753 199.021 185.604 198.814 185.362C174.264 175.735 173.354 152.889 174.125 143.435C174.16 143.044 174.39 142.698 174.747 142.526C182.128 138.921 185.491 132.761 186.838 129.421C186.988 129.053 187.31 128.788 187.702 128.73C191.605 128.132 195.567 127.844 199.608 127.832C199.62 127.832 199.631 127.821 199.643 127.821C199.655 127.821 199.666 127.821 199.678 127.832C203.823 127.832 208.026 128.143 212.287 128.776C212.678 128.834 213.012 129.099 213.162 129.467C214.509 132.807 217.86 138.933 225.23 142.526C225.587 142.698 225.817 143.044 225.851 143.435C226.116 146.613 226.174 151.312 225.23 156.505C225.253 156.597 225.287 156.689 225.287 156.793Z" fill="#BAC8EC"/>
<path d="M211.342 130.895C207.761 130.389 204.238 130.135 200.76 130.078V155.664H223.099C223.882 151.196 223.871 147.143 223.675 144.23C216.455 140.499 212.92 134.534 211.342 130.895Z" fill="#BAC8EC"/>
<path d="M175.058 126.312C175.058 126.922 174.551 127.429 173.941 127.429C171.891 127.429 170.222 129.179 170.222 131.344C170.222 131.955 169.715 132.461 169.105 132.461C168.483 132.461 167.988 131.955 167.988 131.344C167.988 129.179 166.318 127.429 164.268 127.429C163.647 127.429 163.151 126.934 163.151 126.312C163.151 125.69 163.647 125.195 164.268 125.195C166.307 125.195 167.988 123.433 167.988 121.28C167.988 120.67 168.483 120.163 169.105 120.163C169.715 120.163 170.222 120.67 170.222 121.28C170.222 123.433 171.88 125.195 173.941 125.195C174.551 125.195 175.058 125.702 175.058 126.312Z" fill="#BAC8EC"/>
<path d="M229.225 188.609C228.581 187.515 227.682 186.606 226.623 185.949C227.682 185.293 228.581 184.372 229.225 183.289C229.87 184.383 230.768 185.293 231.828 185.949C230.768 186.606 229.87 187.527 229.225 188.609Z" fill="#BAC8EC"/>
<path d="M236.848 185.949C236.848 186.56 236.342 187.066 235.731 187.066C232.761 187.066 230.342 189.599 230.342 192.72C230.342 193.342 229.847 193.837 229.225 193.837C228.615 193.837 228.108 193.342 228.108 192.72C228.108 189.599 225.702 187.066 222.731 187.066C222.121 187.066 221.614 186.56 221.614 185.949C221.614 185.327 222.121 184.832 222.731 184.832C225.702 184.832 228.108 182.287 228.108 179.167C228.108 178.556 228.615 178.05 229.225 178.05C229.847 178.05 230.342 178.556 230.342 179.167C230.342 182.287 232.761 184.832 235.731 184.832C236.342 184.832 236.848 185.327 236.848 185.949Z" fill="#BAC8EC"/>
</g>
</g>
<defs>
<filter id="filter0_f_621_873" x="71" y="69" width="258" height="258" filterUnits="userSpaceOnUse" color-interpolation-filters="sRGB">
<feFlood flood-opacity="0" result="BackgroundImageFix"/>
<feBlend mode="normal" in="SourceGraphic" in2="BackgroundImageFix" result="shape"/>
<feGaussianBlur stdDeviation="12" result="effect1_foregroundBlur_621_873"/>
</filter>
<filter id="filter1_i_621_873" x="15" y="126" width="61" height="65" filterUnits="userSpaceOnUse" color-interpolation-filters="sRGB">
<feFlood flood-opacity="0" result="BackgroundImageFix"/>
<feBlend mode="normal" in="SourceGraphic" in2="BackgroundImageFix" result="shape"/>
<feColorMatrix in="SourceAlpha" type="matrix" values="0 0 0 0 0 0 0 0 0 0 0 0 0 0 0 0 0 0 127 0" result="hardAlpha"/>
<feOffset dy="4"/>
<feGaussianBlur stdDeviation="6.3"/>
<feComposite in2="hardAlpha" operator="arithmetic" k2="-1" k3="1"/>
<feColorMatrix type="matrix" values="0 0 0 0 0.466667 0 0 0 0 0.521569 0 0 0 0 0.615686 0 0 0 1 0"/>
<feBlend mode="normal" in2="shape" result="effect1_innerShadow_621_873"/>
</filter>
<filter id="filter2_i_621_873" x="325" y="126" width="61" height="65" filterUnits="userSpaceOnUse" color-interpolation-filters="sRGB">
<feFlood flood-opacity="0" result="BackgroundImageFix"/>
<feBlend mode="normal" in="SourceGraphic" in2="BackgroundImageFix" result="shape"/>
<feColorMatrix in="SourceAlpha" type="matrix" values="0 0 0 0 0 0 0 0 0 0 0 0 0 0 0 0 0 0 127 0" result="hardAlpha"/>
<feOffset dy="4"/>
<feGaussianBlur stdDeviation="6.3"/>
<feComposite in2="hardAlpha" operator="arithmetic" k2="-1" k3="1"/>
<feColorMatrix type="matrix" values="0 0 0 0 0.466667 0 0 0 0 0.521569 0 0 0 0 0.615686 0 0 0 1 0"/>
<feBlend mode="normal" in2="shape" result="effect1_innerShadow_621_873"/>
</filter>
<filter id="filter3_i_621_873" x="75" y="46" width="61" height="65" filterUnits="userSpaceOnUse" color-interpolation-filters="sRGB">
<feFlood flood-opacity="0" result="BackgroundImageFix"/>
<feBlend mode="normal" in="SourceGraphic" in2="BackgroundImageFix" result="shape"/>
<feColorMatrix in="SourceAlpha" type="matrix" values="0 0 0 0 0 0 0 0 0 0 0 0 0 0 0 0 0 0 127 0" result="hardAlpha"/>
<feOffset dy="4"/>
<feGaussianBlur stdDeviation="6.3"/>
<feComposite in2="hardAlpha" operator="arithmetic" k2="-1" k3="1"/>
<feColorMatrix type="matrix" values="0 0 0 0 0.466667 0 0 0 0 0.521569 0 0 0 0 0.615686 0 0 0 1 0"/>
<feBlend mode="normal" in2="shape" result="effect1_innerShadow_621_873"/>
</filter>
<filter id="filter4_i_621_873" x="265" y="46" width="61" height="65" filterUnits="userSpaceOnUse" color-interpolation-filters="sRGB">
<feFlood flood-opacity="0" result="BackgroundImageFix"/>
<feBlend mode="normal" in="SourceGraphic" in2="BackgroundImageFix" result="shape"/>
<feColorMatrix in="SourceAlpha" type="matrix" values="0 0 0 0 0 0 0 0 0 0 0 0 0 0 0 0 0 0 127 0" result="hardAlpha"/>
<feOffset dy="4"/>
<feGaussianBlur stdDeviation="6.3"/>
<feComposite in2="hardAlpha" operator="arithmetic" k2="-1" k3="1"/>
<feColorMatrix type="matrix" values="0 0 0 0 0.466667 0 0 0 0 0.521569 0 0 0 0 0.615686 0 0 0 1 0"/>
<feBlend mode="normal" in2="shape" result="effect1_innerShadow_621_873"/>
</filter>
<filter id="filter5_i_621_873" x="170" y="15" width="61" height="65" filterUnits="userSpaceOnUse" color-interpolation-filters="sRGB">
<feFlood flood-opacity="0" result="BackgroundImageFix"/>
<feBlend mode="normal" in="SourceGraphic" in2="BackgroundImageFix" result="shape"/>
<feColorMatrix in="SourceAlpha" type="matrix" values="0 0 0 0 0 0 0 0 0 0 0 0 0 0 0 0 0 0 127 0" result="hardAlpha"/>
<feOffset dy="4"/>
<feGaussianBlur stdDeviation="6.3"/>
<feComposite in2="hardAlpha" operator="arithmetic" k2="-1" k3="1"/>
<feColorMatrix type="matrix" values="0 0 0 0 0.466667 0 0 0 0 0.521569 0 0 0 0 0.615686 0 0 0 1 0"/>
<feBlend mode="normal" in2="shape" result="effect1_innerShadow_621_873"/>
</filter>
<filter id="filter6_f_621_873" x="68" y="136" width="264" height="190" filterUnits="userSpaceOnUse" color-interpolation-filters="sRGB">
<feFlood flood-opacity="0" result="BackgroundImageFix"/>
<feBlend mode="normal" in="SourceGraphic" in2="BackgroundImageFix" result="shape"/>
<feGaussianBlur stdDeviation="22" result="effect1_foregroundBlur_621_873"/>
</filter>
<filter id="filter7_d_621_873" x="158" y="119" width="84" height="84" filterUnits="userSpaceOnUse" color-interpolation-filters="sRGB">
<feFlood flood-opacity="0" result="BackgroundImageFix"/>
<feColorMatrix in="SourceAlpha" type="matrix" values="0 0 0 0 0 0 0 0 0 0 0 0 0 0 0 0 0 0 127 0" result="hardAlpha"/>
<feOffset dy="4"/>
<feGaussianBlur stdDeviation="2"/>
<feComposite in2="hardAlpha" operator="out"/>
<feColorMatrix type="matrix" values="0 0 0 0 0 0 0 0 0 0 0 0 0 0 0 0 0 0 0.25 0"/>
<feBlend mode="normal" in2="BackgroundImageFix" result="effect1_dropShadow_621_873"/>
<feBlend mode="normal" in="SourceGraphic" in2="effect1_dropShadow_621_873" result="shape"/>
</filter>
<clipPath id="clip0_621_873">
<rect width="400" height="206" rx="16" fill="white"/>
</clipPath>
<clipPath id="clip1_621_873">
<rect width="24" height="24" fill="white" transform="translate(343 145)"/>
</clipPath>
<clipPath id="clip2_621_873">
<rect width="24" height="24" fill="white" transform="translate(188 34)"/>
</clipPath>
</defs>
</svg>
