<svg width="26" height="26" viewBox="0 0 26 26" fill="none" xmlns="http://www.w3.org/2000/svg">
<path d="M19.3889 24.6458C22.2309 24.6458 24.5348 22.3419 24.5348 19.5C24.5348 16.658 22.2309 14.3541 19.3889 14.3541C16.547 14.3541 14.2431 16.658 14.2431 19.5C14.2431 22.3419 16.547 24.6458 19.3889 24.6458Z" fill="#C1D1FB"/>
<path d="M9.82417 1.35413H3.40975C2.21314 1.35413 1.24309 2.32418 1.24309 3.52079V9.93521C1.24309 11.1318 2.21314 12.1019 3.40975 12.1019H9.82417C11.0208 12.1019 11.9908 11.1318 11.9908 9.93521V3.52079C11.9908 2.32418 11.0208 1.35413 9.82417 1.35413Z" fill="#C1D1FB"/>
<path d="M9.82417 13.8981H3.40975C2.21314 13.8981 1.24309 14.8681 1.24309 16.0647V22.4792C1.24309 23.6758 2.21314 24.6458 3.40975 24.6458H9.82417C11.0208 24.6458 11.9908 23.6758 11.9908 22.4792V16.0647C11.9908 14.8681 11.0208 13.8981 9.82417 13.8981Z" fill="#C1D1FB"/>
<path d="M22.3681 1.35413H15.9537C14.7571 1.35413 13.787 2.32418 13.787 3.52079V9.93521C13.787 11.1318 14.7571 12.1019 15.9537 12.1019H22.3681C23.5647 12.1019 24.5348 11.1318 24.5348 9.93521V3.52079C24.5348 2.32418 23.5647 1.35413 22.3681 1.35413Z" fill="#C1D1FB"/>
</svg>
