<svg width="400" height="206" viewBox="0 0 400 206" fill="none" xmlns="http://www.w3.org/2000/svg">
<rect width="400" height="206" rx="16" fill="white"/>
<rect width="400" height="206" rx="16" fill="#EDEEF2"/>
<g clip-path="url(#clip0_621_884)">
<path d="M149.127 164.014C159.021 164.014 167.042 155.993 167.042 146.099C167.042 136.204 159.021 128.183 149.127 128.183C139.232 128.183 131.211 136.204 131.211 146.099C131.211 155.993 139.232 164.014 149.127 164.014Z" fill="#89ABE8" fill-opacity="0.6"/>
<path d="M264.394 148.127C272.982 148.127 279.944 141.165 279.944 132.577C279.944 123.99 272.982 117.028 264.394 117.028C255.807 117.028 248.845 123.99 248.845 132.577C248.845 141.165 255.807 148.127 264.394 148.127Z" fill="#89ABE8" fill-opacity="0.3"/>
<path d="M250.197 69.7042C257.291 69.7042 263.042 63.9532 263.042 56.8591C263.042 49.765 257.291 44.014 250.197 44.014C243.103 44.014 237.352 49.765 237.352 56.8591C237.352 63.9532 243.103 69.7042 250.197 69.7042Z" fill="#89ABE8" fill-opacity="0.07"/>
<path d="M135.012 120.283C145.513 120.283 154.025 111.978 154.025 101.734C154.025 91.4895 145.513 83.1848 135.012 83.1848C124.512 83.1848 116 91.4895 116 101.734C116 111.978 124.512 120.283 135.012 120.283Z" fill="#89ABE8" fill-opacity="0.7"/>
<path d="M189.63 187C199.175 187 206.914 179.459 206.914 170.158C206.914 160.856 199.175 153.315 189.63 153.315C180.084 153.315 172.346 160.856 172.346 170.158C172.346 179.459 180.084 187 189.63 187Z" fill="#89ABE8" fill-opacity="0.5"/>
<path d="M234.049 179.621C243.118 179.621 250.469 172.463 250.469 163.633C250.469 154.803 243.118 147.645 234.049 147.645C224.981 147.645 217.63 154.803 217.63 163.633C217.63 172.463 224.981 179.621 234.049 179.621Z" fill="#89ABE8" fill-opacity="0.4"/>
<path d="M155.58 77.2055C166.558 77.2055 175.457 68.519 175.457 57.8037C175.457 47.0883 166.558 38.4019 155.58 38.4019C144.603 38.4019 135.704 47.0883 135.704 57.8037C135.704 68.519 144.603 77.2055 155.58 77.2055Z" fill="#89ABE8" fill-opacity="0.85"/>
<path d="M178.601 111V95.9973L179.916 97.3591H175.185V94.8432H181.601V111H178.601ZM191.546 111.231C190.269 111.231 189.115 110.908 188.084 110.261C187.068 109.615 186.268 108.677 185.683 107.446C185.099 106.199 184.806 104.691 184.806 102.922C184.806 101.152 185.099 99.6518 185.683 98.4208C186.268 97.1744 187.068 96.2281 188.084 95.5818C189.115 94.9356 190.269 94.6124 191.546 94.6124C192.838 94.6124 193.992 94.9356 195.008 95.5818C196.024 96.2281 196.824 97.1744 197.408 98.4208C198.009 99.6518 198.309 101.152 198.309 102.922C198.309 104.691 198.009 106.199 197.408 107.446C196.824 108.677 196.024 109.615 195.008 110.261C193.992 110.908 192.838 111.231 191.546 111.231ZM191.546 108.623C192.3 108.623 192.954 108.423 193.508 108.023C194.062 107.607 194.493 106.976 194.8 106.13C195.123 105.284 195.285 104.214 195.285 102.922C195.285 101.614 195.123 100.544 194.8 99.7134C194.493 98.867 194.062 98.2439 193.508 97.8438C192.954 97.4283 192.3 97.2206 191.546 97.2206C190.823 97.2206 190.176 97.4283 189.607 97.8438C189.053 98.2439 188.615 98.867 188.291 99.7134C187.984 100.544 187.83 101.614 187.83 102.922C187.83 104.214 187.984 105.284 188.291 106.13C188.615 106.976 189.053 107.607 189.607 108.023C190.176 108.423 190.823 108.623 191.546 108.623ZM207.076 111.231C205.799 111.231 204.645 110.908 203.614 110.261C202.598 109.615 201.798 108.677 201.213 107.446C200.629 106.199 200.336 104.691 200.336 102.922C200.336 101.152 200.629 99.6518 201.213 98.4208C201.798 97.1744 202.598 96.2281 203.614 95.5818C204.645 94.9356 205.799 94.6124 207.076 94.6124C208.369 94.6124 209.523 94.9356 210.538 95.5818C211.554 96.2281 212.354 97.1744 212.939 98.4208C213.539 99.6518 213.839 101.152 213.839 102.922C213.839 104.691 213.539 106.199 212.939 107.446C212.354 108.677 211.554 109.615 210.538 110.261C209.523 110.908 208.369 111.231 207.076 111.231ZM207.076 108.623C207.83 108.623 208.484 108.423 209.038 108.023C209.592 107.607 210.023 106.976 210.33 106.13C210.654 105.284 210.815 104.214 210.815 102.922C210.815 101.614 210.654 100.544 210.33 99.7134C210.023 98.867 209.592 98.2439 209.038 97.8438C208.484 97.4283 207.83 97.2206 207.076 97.2206C206.353 97.2206 205.707 97.4283 205.137 97.8438C204.583 98.2439 204.145 98.867 203.822 99.7134C203.514 100.544 203.36 101.614 203.36 102.922C203.36 104.214 203.514 105.284 203.822 106.13C204.145 106.976 204.583 107.607 205.137 108.023C205.707 108.423 206.353 108.623 207.076 108.623ZM218.128 111L229.161 94.8432H231.423L220.39 111H218.128ZM219.467 103.545C218.713 103.545 218.044 103.36 217.459 102.991C216.874 102.622 216.42 102.106 216.097 101.444C215.774 100.783 215.613 100.006 215.613 99.1132C215.613 98.2208 215.774 97.4437 216.097 96.7821C216.42 96.1204 216.874 95.6049 217.459 95.2356C218.044 94.8663 218.713 94.6817 219.467 94.6817C220.252 94.6817 220.929 94.8663 221.498 95.2356C222.083 95.6049 222.537 96.1204 222.86 96.7821C223.183 97.4283 223.345 98.2054 223.345 99.1132C223.345 100.006 223.183 100.783 222.86 101.444C222.537 102.106 222.083 102.622 221.498 102.991C220.929 103.36 220.252 103.545 219.467 103.545ZM219.467 101.929C220.098 101.929 220.583 101.691 220.921 101.214C221.275 100.721 221.452 100.021 221.452 99.1132C221.452 98.2054 221.275 97.513 220.921 97.0359C220.583 96.5435 220.098 96.2974 219.467 96.2974C218.867 96.2974 218.382 96.5435 218.013 97.0359C217.659 97.5283 217.482 98.2208 217.482 99.1132C217.482 100.006 217.659 100.698 218.013 101.191C218.382 101.683 218.867 101.929 219.467 101.929ZM230.061 111.162C229.307 111.162 228.638 110.977 228.053 110.608C227.469 110.238 227.015 109.723 226.692 109.061C226.368 108.4 226.207 107.622 226.207 106.73C226.207 105.838 226.368 105.06 226.692 104.399C227.015 103.737 227.469 103.222 228.053 102.852C228.638 102.483 229.307 102.298 230.061 102.298C230.846 102.298 231.523 102.483 232.092 102.852C232.677 103.222 233.131 103.737 233.454 104.399C233.777 105.06 233.939 105.838 233.939 106.73C233.939 107.622 233.777 108.4 233.454 109.061C233.131 109.723 232.677 110.238 232.092 110.608C231.523 110.977 230.846 111.162 230.061 111.162ZM230.061 109.546C230.677 109.546 231.162 109.3 231.515 108.807C231.869 108.315 232.046 107.622 232.046 106.73C232.046 105.838 231.869 105.145 231.515 104.653C231.162 104.16 230.677 103.914 230.061 103.914C229.461 103.914 228.977 104.16 228.607 104.653C228.253 105.13 228.076 105.822 228.076 106.73C228.076 107.638 228.253 108.338 228.607 108.83C228.977 109.307 229.461 109.546 230.061 109.546Z" fill="#52669A"/>
<path d="M269.309 106.594C277.422 106.594 284 100.139 284 92.1753C284 84.2119 277.422 77.7563 269.309 77.7563C261.195 77.7563 254.617 84.2119 254.617 92.1753C254.617 100.139 261.195 106.594 269.309 106.594Z" fill="#89ABE8" fill-opacity="0.2"/>
<path d="M204.901 60.9155C216.476 60.9155 225.859 51.5324 225.859 39.9577C225.859 28.3831 216.476 19 204.901 19C193.327 19 183.944 28.3831 183.944 39.9577C183.944 51.5324 193.327 60.9155 204.901 60.9155Z" fill="#89ABE8"/>
</g>
<defs>
<clipPath id="clip0_621_884">
<rect width="168" height="168" fill="white" transform="translate(116 19)"/>
</clipPath>
</defs>
</svg>
