<svg width="58" height="58" viewBox="0 0 58 58" fill="none" xmlns="http://www.w3.org/2000/svg">
<rect y="7.95151" width="49.7132" height="49.7132" rx="9.56023" transform="rotate(-9.20386 0 7.95151)" fill="white" fill-opacity="0.1"/>
<g clip-path="url(#clip0_621_1063)">
<path d="M33.2762 12.69L19.279 14.958C14.9665 15.6568 12.0371 19.7191 12.7359 24.0316L15.0039 38.0287C15.7027 42.3412 19.7649 45.2706 24.0775 44.5718L38.0746 42.3038C42.3871 41.605 45.3165 37.5428 44.6177 33.2303L42.3497 19.2331C41.6509 14.9206 37.5887 11.9912 33.2762 12.69ZM30.638 35.4005L29.469 33.0618L25.1125 33.7677L24.7511 36.3544L21.3547 36.9047L24.0546 22.9342L27.0431 22.4499L34.0522 34.8472L30.638 35.4005ZM38.0917 34.1927L35.0303 34.6888L33.4424 24.889L36.5038 24.393L38.0917 34.1927ZM35.9413 22.9877C35.6723 23.3162 35.287 23.5211 34.7861 23.6023C34.2852 23.6834 33.855 23.6107 33.4959 23.384C33.1368 23.1572 32.9224 22.8263 32.8519 22.3914C32.7814 21.9564 32.8805 21.5753 33.1495 21.2462C33.4186 20.9177 33.8033 20.7129 34.3048 20.6316C34.8062 20.5504 35.2359 20.6232 35.595 20.85C35.954 21.0767 36.1685 21.4076 36.239 21.8426C36.3094 22.2775 36.2104 22.6592 35.9413 22.9877ZM26.1472 26.3869L28.31 30.7305L25.4753 31.1898L26.1472 26.3869Z" fill="#C1D1FB"/>
</g>
<defs>
<clipPath id="clip0_621_1063">
<rect width="30" height="30" fill="white" transform="translate(11.4707 16.2232) rotate(-9.20386)"/>
</clipPath>
</defs>
</svg>
