<svg width="54" height="54" viewBox="0 0 54 54" fill="none" xmlns="http://www.w3.org/2000/svg">
<rect x="4.23669" width="49.7132" height="49.7132" rx="9.56023" transform="rotate(4.88883 4.23669 0)" fill="white" fill-opacity="0.1"/>
<path d="M13.3922 26.7275C13.5122 25.3243 14.747 24.2841 16.1502 24.4041C17.5534 24.5241 18.5936 25.7589 18.4736 27.1621L17.6044 37.325C17.4843 38.7282 16.2495 39.7684 14.8463 39.6484C13.4431 39.5284 12.4029 38.2935 12.5229 36.8904L13.3922 26.7275Z" fill="#C1D1FB"/>
<path d="M20.1916 27.0247L19.4048 36.2232C19.2951 37.5064 19.9197 38.7414 21.0183 39.4134L21.0991 39.4628C21.9997 40.0137 23.0161 40.3473 24.0679 40.4373L33.2418 41.222C34.8567 41.3601 36.3445 40.3392 36.7967 38.7828L39.6985 28.7937C40.2971 26.7334 38.861 24.6405 36.7232 24.4577L30.6925 23.9418L31.2721 17.1666C31.4321 15.2956 30.0452 13.6492 28.1742 13.4892C27.2387 13.4092 26.4155 14.1027 26.3355 15.0381L26.2389 16.1673C26.1135 17.6333 25.516 19.019 24.5361 20.1166L21.8944 23.0755C20.9145 24.1731 20.317 25.5588 20.1916 27.0247Z" fill="#C1D1FB"/>
</svg>
