<svg width="175" height="40" viewBox="0 0 175 40" fill="none" xmlns="http://www.w3.org/2000/svg">
<path d="M10.9941 12.809L13.9107 9.88764H19.7441H31.4107V15.7303L17.0518 30.5618H8.52611L22.8851 15.7303H19.7441H8.07739L10.9941 12.809Z" fill="#0E1116"/>
<path d="M25.1282 21.1236L28.2692 23.1461L31.4102 25.1685V30.5618H25.1282V21.1236Z" fill="#0E1116"/>
<path d="M55.9062 17.191L51.9287 17.4362C51.861 17.0957 51.7147 16.7893 51.4903 16.5169C51.266 16.2377 50.9703 16.0164 50.6032 15.8529C50.2429 15.6827 49.8112 15.5975 49.3078 15.5975C48.6347 15.5975 48.0671 15.7405 47.6049 16.0266C47.1427 16.3058 46.9112 16.6803 46.9112 17.1502C46.9112 17.5247 47.061 17.8413 47.3599 18.1001C47.6592 18.3589 48.1725 18.5666 48.8999 18.7232L51.7349 19.2952C53.2578 19.6084 54.3935 20.1124 55.1411 20.807C55.8891 21.5015 56.2629 22.414 56.2629 23.5444C56.2629 24.5727 55.9605 25.475 55.3556 26.2513C54.757 27.0276 53.9345 27.6337 52.8876 28.0694C51.8471 28.4985 50.6472 28.713 49.2876 28.713C47.2141 28.713 45.5619 28.2805 44.3313 27.4157C43.1075 26.5441 42.3902 25.3592 42.1794 23.8611L46.4526 23.6364C46.5818 24.2697 46.8946 24.7532 47.3909 25.0868C47.8871 25.4137 48.5225 25.5771 49.2979 25.5771C50.0594 25.5771 50.671 25.4307 51.1336 25.1379C51.6025 24.8383 51.8403 24.4535 51.8471 23.9836C51.8403 23.5887 51.6739 23.2653 51.3476 23.0133C51.0214 22.7545 50.518 22.557 49.8382 22.4209L47.1257 21.8795C45.596 21.573 44.457 21.0419 43.7092 20.286C42.9681 19.5301 42.5976 18.5666 42.5976 17.3953C42.5976 16.3875 42.8695 15.5192 43.4134 14.7906C43.9641 14.062 44.7358 13.5002 45.7284 13.1052C46.7276 12.7102 47.897 12.5128 49.2364 12.5128C51.2148 12.5128 52.7719 12.9316 53.9071 13.7692C55.0496 14.6067 55.7159 15.7474 55.9062 17.191Z" fill="#0E1116"/>
<path d="M66.1375 28.713C64.5261 28.713 63.1391 28.3861 61.9765 27.7324C60.8211 27.0719 59.9304 26.1389 59.3048 24.9336C58.6793 23.7215 58.3666 22.288 58.3666 20.6333C58.3666 19.0194 58.6793 17.603 59.3048 16.384C59.9304 15.1651 60.8107 14.2152 61.946 13.5342C63.0884 12.8533 64.4274 12.5128 65.9643 12.5128C66.9977 12.5128 67.9597 12.6796 68.8504 13.0133C69.7479 13.3401 70.5295 13.8338 71.1959 14.4944C71.8689 15.1549 72.3921 15.9857 72.7664 16.9867C73.1402 17.9809 73.3273 19.1454 73.3273 20.4801V21.6752H60.1004V18.9786H69.2377C69.2377 18.352 69.1017 17.7971 68.8298 17.3136C68.5579 16.8301 68.1805 16.4522 67.6977 16.1798C67.222 15.9006 66.6679 15.761 66.0356 15.761C65.376 15.761 64.7913 15.9142 64.2816 16.2206C63.7781 16.5203 63.3841 16.9254 63.0983 17.4362C62.8129 17.9401 62.6666 18.5019 62.6599 19.1216V21.6854C62.6599 22.4617 62.8026 23.1324 63.0884 23.6977C63.3805 24.2629 63.792 24.6987 64.3224 25.0051C64.8523 25.3116 65.4814 25.4648 66.2088 25.4648C66.6916 25.4648 67.1336 25.3967 67.5348 25.2604C67.9359 25.1243 68.2792 24.92 68.5646 24.6476C68.8504 24.3752 69.0676 24.0415 69.2175 23.6466L73.2353 23.9121C73.0316 24.8791 72.6134 25.7236 71.9811 26.4453C71.3556 27.1604 70.5466 27.7187 69.554 28.1205C68.5682 28.5155 67.4293 28.713 66.1375 28.713Z" fill="#0E1116"/>
<path d="M76.1616 28.4065V12.7171H80.3733V15.4546H80.5366C80.822 14.4808 81.3017 13.7453 81.9748 13.2482C82.6478 12.7443 83.4228 12.4924 84.2996 12.4924C84.5172 12.4924 84.7519 12.506 85.0036 12.5332C85.2549 12.5605 85.4761 12.5979 85.6664 12.6456V16.5067C85.4622 16.4453 85.18 16.3909 84.8196 16.3432C84.4593 16.2956 84.13 16.2717 83.8307 16.2717C83.1917 16.2717 82.6205 16.4113 82.1175 16.6905C81.6212 16.9629 81.2267 17.3442 80.9342 17.8345C80.6488 18.3248 80.5061 18.89 80.5061 19.5301V28.4065H76.1616Z" fill="#0E1116"/>
<path d="M97.0303 12.7171V15.9857H87.5969V12.7171H97.0303ZM89.7387 8.95811H94.0827V23.5853C94.0827 23.9871 94.1442 24.3003 94.2667 24.525C94.3887 24.7429 94.5588 24.8961 94.7764 24.9847C95.0008 25.0732 95.2592 25.1175 95.5513 25.1175C95.7555 25.1175 95.9592 25.1005 96.1634 25.0664C96.3671 25.0255 96.5237 24.9949 96.6323 24.9745L97.3157 28.2125C97.0981 28.2805 96.7921 28.3589 96.3981 28.4474C96.0037 28.5427 95.5244 28.6006 94.9599 28.621C93.9131 28.6619 92.995 28.5223 92.2066 28.2022C91.4245 27.8822 90.816 27.3851 90.3808 26.7109C89.946 26.0368 89.7315 25.1856 89.7387 24.1573V8.95811Z" fill="#0E1116"/>
<path d="M106.831 28.713C105.219 28.713 103.832 28.3861 102.67 27.7324C101.514 27.0719 100.623 26.1389 99.9977 24.9336C99.3722 23.7215 99.0594 22.288 99.0594 20.6333C99.0594 19.0194 99.3722 17.603 99.9977 16.384C100.623 15.1651 101.504 14.2152 102.639 13.5342C103.781 12.8533 105.121 12.5128 106.657 12.5128C107.691 12.5128 108.653 12.6796 109.543 13.0133C110.441 13.3401 111.222 13.8338 111.889 14.4944C112.562 15.1549 113.085 15.9857 113.459 16.9867C113.833 17.9809 114.02 19.1454 114.02 20.4801V21.6752H100.793V18.9786H109.931C109.931 18.352 109.795 17.7971 109.523 17.3136C109.251 16.8301 108.874 16.4522 108.391 16.1798C107.915 15.9006 107.361 15.761 106.728 15.761C106.069 15.761 105.485 15.9142 104.974 16.2206C104.471 16.5203 104.077 16.9254 103.792 17.4362C103.506 17.9401 103.36 18.5019 103.353 19.1216V21.6854C103.353 22.4617 103.496 23.1324 103.781 23.6977C104.074 24.2629 104.485 24.6987 105.015 25.0051C105.546 25.3116 106.174 25.4648 106.902 25.4648C107.385 25.4648 107.826 25.3967 108.228 25.2604C108.629 25.1243 108.972 24.92 109.258 24.6476C109.543 24.3752 109.761 24.0415 109.91 23.6466L113.929 23.9121C113.724 24.8791 113.306 25.7236 112.674 26.4453C112.048 27.1604 111.239 27.7187 110.247 28.1205C109.261 28.5155 108.122 28.713 106.831 28.713Z" fill="#0E1116"/>
<path d="M120.205 12.7171L123.081 18.2022L126.029 12.7171H130.485L125.947 20.5618L130.607 28.4065H126.171L123.081 22.9827L120.042 28.4065H115.555L120.205 20.5618L115.718 12.7171H120.205Z" fill="#0E1116"/>
<path d="M133.065 28.4065V12.7171H137.41V28.4065H133.065ZM135.248 10.6946C134.602 10.6946 134.048 10.4801 133.586 10.0511C133.13 9.61524 132.902 9.09429 132.902 8.48827C132.902 7.88899 133.13 7.37488 133.586 6.94584C134.048 6.51002 134.602 6.29214 135.248 6.29214C135.893 6.29214 136.444 6.51002 136.9 6.94584C137.362 7.37488 137.593 7.88899 137.593 8.48827C137.593 9.09429 137.362 9.61524 136.9 10.0511C136.444 10.4801 135.893 10.6946 135.248 10.6946Z" fill="#0E1116"/>
<path d="M149.222 12.7171V15.9857H139.789V12.7171H149.222ZM141.93 8.95811H146.275V23.5853C146.275 23.9871 146.336 24.3003 146.458 24.525C146.581 24.7429 146.751 24.8961 146.968 24.9847C147.192 25.0732 147.451 25.1175 147.743 25.1175C147.947 25.1175 148.151 25.1004 148.355 25.0664C148.559 25.0255 148.715 24.9949 148.824 24.9745L149.508 28.2124C149.29 28.2805 148.984 28.3589 148.59 28.4474C148.195 28.5427 147.716 28.6006 147.152 28.621C146.105 28.6619 145.187 28.5223 144.398 28.2022C143.617 27.8822 143.008 27.3851 142.573 26.7109C142.138 26.0368 141.924 25.1856 141.93 24.1573V8.95811Z" fill="#0E1116"/>
<path d="M154.734 34.2901C154.184 34.2901 153.667 34.2458 153.184 34.1573C152.708 34.0756 152.314 33.97 152.001 33.8407L152.98 30.5924C153.49 30.7491 153.949 30.8342 154.357 30.8478C154.772 30.8614 155.129 30.7661 155.428 30.5618C155.733 30.3575 155.982 30.0102 156.172 29.5199L156.427 28.856L150.808 12.7171H155.377L158.62 24.239H158.783L162.056 12.7171H166.656L160.567 30.1022C160.275 30.9466 159.877 31.682 159.374 32.3085C158.878 32.9418 158.249 33.4287 157.488 33.7692C156.726 34.1164 155.808 34.2901 154.734 34.2901Z" fill="#0E1116"/>
</svg>
