<svg width="378" height="204" viewBox="0 0 378 204" fill="none" xmlns="http://www.w3.org/2000/svg">
<path d="M71.3239 16.8348L54.6178 30.2287L74.5703 37.9997L71.3239 16.8348ZM2.71228 193L0.984341 192.327L2.86102e-06 194.854H2.71228V193ZM401.402 193L382.858 182.294V203.706L401.402 193ZM65.2671 32.3863L63.5391 31.7133L0.984341 192.327L2.71228 193L4.44022 193.673L66.995 33.0593L65.2671 32.3863ZM2.71228 193V194.854H384.712V193V191.146H2.71228V193Z" fill="white"/>
<path d="M39.7997 161.476L64.4646 103.99L130.412 154.058L169.624 70.6117L174.971 96.5728L183.882 87.301L187.447 96.5728L205.271 81.7379L223.094 109.553L278.347 35.3786L305.083 81.7379L331.818 70.6117L347.859 66.9029V40.9417L371.03 27.9612L399.547 2" stroke="#0E1116" stroke-width="4" stroke-linecap="round"/>
</svg>
