<svg width="32" height="32" viewBox="0 0 32 32" fill="none" xmlns="http://www.w3.org/2000/svg">
<g clip-path="url(#clip0_621_828)">
<path d="M20.2613 7.90864H23.4116L23.3574 5.98968H20.6943L23.1972 0.816812L20.3656 0.579861L17.8785 2.48631L18.7078 0.330396L15.8052 0L14.8533 2.69406L13.2889 0.608229L8.98556 0.458883L11.8331 5.99051L9.26255 5.90791V7.90781H11.7396C6.45676 10.9998 2.65063 19.082 2.65063 23.4481C2.65063 28.9213 8.62764 32 15.9996 32C23.3716 32 29.3486 28.9213 29.3486 23.4481C29.3494 19.082 25.5441 11.0007 20.2613 7.90864ZM17.1159 26.0737V27.9685H15.2946V26.2039C14.0498 26.1497 12.8417 25.8126 12.1359 25.4054L12.6932 23.2328C13.4733 23.6608 14.5704 24.0496 15.7777 24.0496C16.8364 24.0496 17.5614 23.6408 17.5614 22.8991C17.5614 22.1907 16.9674 21.7444 15.5925 21.2813C13.6035 20.613 12.2477 19.6827 12.2477 17.8823C12.2477 16.247 13.3999 14.9638 15.3881 14.575V12.8095H17.2094V14.4448C18.4533 14.5015 19.291 14.7593 19.9034 15.0572L19.3644 17.1572C18.8813 16.9536 18.0262 16.5248 16.6888 16.5248C15.4807 16.5248 15.0902 17.0446 15.0902 17.5644C15.0902 18.1784 15.741 18.5681 17.3203 19.163C19.5304 19.9456 20.4231 20.9651 20.4231 22.6388C20.424 24.2899 19.2526 25.7025 17.1159 26.0737Z" fill="#C1D1FB"/>
</g>
<defs>
<clipPath id="clip0_621_828">
<rect width="32" height="32" fill="white"/>
</clipPath>
</defs>
</svg>
