<svg width="32" height="32" viewBox="0 0 32 32" fill="none" xmlns="http://www.w3.org/2000/svg">
<g clip-path="url(#clip0_621_846)">
<path d="M3.25175 22.0886C2.33819 20.1795 1.875 18.131 1.875 16C1.875 8.21144 8.21144 1.875 16 1.875C19.0944 1.875 22.0364 2.86394 24.4665 4.69119L22.1285 4.999C21.6152 5.06656 21.2538 5.5375 21.3214 6.05081C21.3889 6.56419 21.8599 6.9255 22.3732 6.85794L26.7731 6.27869C27.2864 6.21112 27.6478 5.74019 27.5802 5.22687L27.0009 0.827C26.9334 0.313688 26.4624 -0.0476875 25.9491 0.019875H25.9491C25.4357 0.0874375 25.0744 0.558375 25.1419 1.07169L25.4026 3.05125C22.6868 1.07037 19.4259 0 16 0C11.7262 0 7.70831 1.66425 4.68625 4.68625C1.66431 7.70831 0 11.7262 0 16C0 18.4134 0.525 20.7342 1.5605 22.898C1.784 23.3651 2.34375 23.5625 2.81081 23.339C3.27781 23.1155 3.47525 22.5557 3.25175 22.0886Z" fill="#C1D1FB"/>
<path d="M24.6716 14.6019L25.1403 14.3313C25.5887 14.0724 25.7423 13.4991 25.4834 13.0507L23.2959 9.26181C23.037 8.81344 22.4637 8.65975 22.0153 8.91869L21.5466 9.18931C20.4703 9.81069 19.125 9.03394 19.125 7.79119V7.25C19.125 6.73225 18.7053 6.3125 18.1875 6.3125H13.8125C13.2948 6.3125 12.875 6.73225 12.875 7.25V7.79119C12.875 9.03394 11.5297 9.81063 10.4535 9.18931L9.98478 8.91869C9.5364 8.65981 8.96303 8.81344 8.70415 9.26181L6.51665 13.0507C6.25778 13.4991 6.4114 14.0724 6.85978 14.3313L7.32846 14.6019C8.40471 15.2233 8.40471 16.7767 7.32846 17.3981L6.85978 17.6686C6.4114 17.9275 6.25771 18.5009 6.51665 18.9492L8.70415 22.7381C8.96303 23.1865 9.5364 23.3402 9.98478 23.0812L10.4535 22.8106C11.5297 22.1892 12.875 22.966 12.875 24.2087V24.75C12.875 25.2677 13.2948 25.6875 13.8125 25.6875H18.1875C18.7053 25.6875 19.125 25.2677 19.125 24.75V24.2088C19.125 22.9661 20.4703 22.1894 21.5466 22.8107L22.0153 23.0813C22.4637 23.3402 23.037 23.1866 23.2959 22.7382L25.4834 18.9493C25.7423 18.5009 25.5887 17.9276 25.1403 17.6687L24.6716 17.3981C23.5953 16.7767 23.5953 15.2233 24.6716 14.6019ZM16 19.5938C14.0153 19.5938 12.4063 17.9847 12.4063 16C12.4063 14.0153 14.0153 12.4062 16 12.4062C17.9848 12.4062 19.5938 14.0153 19.5938 16C19.5938 17.9847 17.9848 19.5938 16 19.5938Z" fill="#C1D1FB"/>
<path d="M30.4395 9.10203C30.216 8.63496 29.6562 8.43753 29.1892 8.66103C28.7222 8.88453 28.5247 9.44428 28.7482 9.91134C29.6618 11.8205 30.125 13.869 30.125 16C30.125 23.7886 23.7886 30.125 16 30.125C12.9056 30.125 9.96356 29.1361 7.53349 27.3088L9.87149 27.001C10.3848 26.9335 10.7462 26.4625 10.6786 25.9492C10.6111 25.4358 10.1401 25.0745 9.62681 25.1421L5.22687 25.7213C4.71356 25.7889 4.35218 26.2598 4.41974 26.7732L4.99906 31.173C5.06662 31.6863 5.53756 32.0477 6.05087 31.9802C6.56418 31.9126 6.92562 31.4417 6.85806 30.9283L6.59743 28.9488C9.31318 30.9297 12.5741 32 16 32C20.2737 32 24.2917 30.3358 27.3137 27.3138C30.3357 24.2917 32 20.2738 32 16C32 13.5867 31.475 11.2658 30.4395 9.10203Z" fill="#C1D1FB"/>
</g>
<defs>
<clipPath id="clip0_621_846">
<rect width="32" height="32" fill="white"/>
</clipPath>
</defs>
</svg>
