<svg width="30" height="30" viewBox="0 0 30 30" fill="none" xmlns="http://www.w3.org/2000/svg">
<g clip-path="url(#clip0_649_265)">
<path d="M0.9375 9.84363C0.937725 9.2221 1.18473 8.62609 1.62422 8.1866C2.06371 7.74711 2.65972 7.50011 3.28125 7.49989V12.1874C2.65972 12.1872 2.06371 11.9402 1.62422 11.5007C1.18473 11.0612 0.937725 10.4652 0.9375 9.84363ZM25.7812 12.1874C25.9055 12.187 26.0245 12.1375 26.1123 12.0497C26.2001 11.9619 26.2496 11.8428 26.25 11.7186V8.90614C26.2495 8.6446 26.1759 8.38842 26.0376 8.16645C25.8993 7.94449 25.7017 7.76557 25.4672 7.64988L24.1828 12.1874H25.7812ZM6.09375 6.56239C6.09412 6.43818 6.14363 6.31917 6.23145 6.23134C6.31928 6.14351 6.43829 6.09401 6.5625 6.09364C6.93513 6.09255 7.29218 5.94404 7.55567 5.68055C7.81916 5.41707 7.96766 5.06001 7.96875 4.68739C7.96912 4.56318 8.01863 4.44417 8.10645 4.35634C8.19428 4.26851 8.31329 4.21901 8.4375 4.21864H8.89687L9.41719 2.38582L9.43125 2.34364H6.5625C5.94097 2.34386 5.34496 2.59086 4.90547 3.03035C4.46598 3.46984 4.21897 4.06585 4.21875 4.68739V12.1874H6.09375V6.56239ZM7.03125 10.8186L8.32969 6.23895C7.98703 6.619 7.53224 6.88005 7.03125 6.98426V10.8186ZM9.56719 12.1874L11.6156 4.95926C11.6317 4.90002 11.6594 4.8446 11.6973 4.79629C11.7351 4.74798 11.7823 4.70776 11.8359 4.67801C11.9446 4.61798 12.0725 4.60284 12.1922 4.63582C12.5515 4.73724 12.9363 4.69204 13.2623 4.51015C13.5883 4.32826 13.8289 4.02451 13.9312 3.66551C13.9479 3.60641 13.976 3.55117 14.0139 3.50293C14.0519 3.45469 14.099 3.41441 14.1525 3.38437C14.2061 3.35434 14.265 3.33514 14.326 3.32789C14.3869 3.32063 14.4487 3.32545 14.5078 3.34207L20.8219 5.12801C20.8817 5.14412 20.9376 5.17243 20.986 5.21114C21.0344 5.24986 21.0743 5.29816 21.1031 5.35301C21.1637 5.46153 21.1789 5.5896 21.1453 5.70926C21.0441 6.06792 21.0895 6.45207 21.2715 6.77729C21.4534 7.10251 21.757 7.34218 22.1156 7.44363C22.1747 7.46025 22.23 7.48835 22.2782 7.52631C22.3264 7.56428 22.3667 7.61138 22.3968 7.66492C22.4268 7.71846 22.446 7.77739 22.4533 7.83835C22.4605 7.89931 22.4557 7.9611 22.4391 8.0202L21.2625 12.1874H23.2078L24.7547 6.72645C24.9231 6.12848 24.8473 5.48815 24.5442 4.94594C24.241 4.40373 23.7351 4.00393 23.1375 3.83426L13.2141 1.02645C12.6161 0.858456 11.9759 0.934336 11.4338 1.23746C10.8917 1.54059 10.4919 2.04624 10.3219 2.64363L7.62188 12.1874H9.56719ZM14.6578 4.35926C14.4452 4.76585 14.1188 5.10166 13.7183 5.32561C13.3179 5.54955 12.8608 5.65193 12.4031 5.6202L10.5422 12.1874H20.2875L21.4219 8.17489C21.0137 7.96298 20.6766 7.63596 20.4525 7.23435C20.2283 6.83273 20.127 6.37418 20.1609 5.91551L14.6578 4.35926ZM22.9688 20.6249C22.876 20.6249 22.7854 20.6524 22.7083 20.7039C22.6312 20.7554 22.5712 20.8286 22.5357 20.9143C22.5002 20.9999 22.4909 21.0942 22.509 21.1851C22.5271 21.276 22.5717 21.3595 22.6373 21.4251C22.7028 21.4906 22.7864 21.5353 22.8773 21.5534C22.9682 21.5715 23.0625 21.5622 23.1481 21.5267C23.2338 21.4912 23.307 21.4311 23.3585 21.3541C23.41 21.277 23.4375 21.1863 23.4375 21.0936C23.4371 20.9694 23.3876 20.8504 23.2998 20.7626C23.212 20.6748 23.093 20.6253 22.9688 20.6249ZM29.0625 19.2186V22.9686C29.0621 23.0928 29.0126 23.2119 28.9248 23.2997C28.837 23.3875 28.718 23.437 28.5938 23.4374H22.9688C22.3471 23.4374 21.751 23.1905 21.3115 22.7509C20.8719 22.3114 20.625 21.7152 20.625 21.0936C20.625 20.472 20.8719 19.8759 21.3115 19.4364C21.751 18.9968 22.3471 18.7499 22.9688 18.7499H28.5938C28.718 18.7503 28.837 18.7998 28.9248 18.8876C29.0126 18.9754 29.0621 19.0944 29.0625 19.2186ZM24.375 21.0936C24.375 20.8155 24.2925 20.5436 24.138 20.3124C23.9835 20.0811 23.7639 19.9009 23.5069 19.7944C23.2499 19.688 22.9672 19.6601 22.6944 19.7144C22.4216 19.7687 22.171 19.9026 21.9744 20.0993C21.7777 20.2959 21.6438 20.5465 21.5895 20.8193C21.5353 21.0921 21.5631 21.3748 21.6695 21.6318C21.776 21.8887 21.9562 22.1084 22.1875 22.2629C22.4187 22.4174 22.6906 22.4999 22.9688 22.4999C23.3414 22.4988 23.6984 22.3503 23.9619 22.0868C24.2254 21.8233 24.3739 21.4663 24.375 21.0936ZM22.9688 24.3749C22.0985 24.3749 21.2639 24.0292 20.6486 23.4138C20.0332 22.7985 19.6875 21.9639 19.6875 21.0936C19.6875 20.2234 20.0332 19.3888 20.6486 18.7734C21.2639 18.1581 22.0985 17.8124 22.9688 17.8124H27.6562C27.8164 17.8114 27.9753 17.84 28.125 17.8968V14.5311C28.1252 14.3464 28.089 14.1634 28.0185 13.9927C27.9479 13.822 27.8443 13.6668 27.7137 13.5362C27.583 13.4056 27.4279 13.302 27.2572 13.2314C27.0865 13.1608 26.9035 13.1246 26.7188 13.1249H3.28125C2.8443 13.1251 2.41173 13.0377 2.00915 12.8678C1.60658 12.698 1.24217 12.449 0.9375 12.1358V26.7186C0.937725 27.3402 1.18473 27.9362 1.62422 28.3757C2.06371 28.8152 2.65972 29.0622 3.28125 29.0624H25.7812C26.4028 29.0622 26.9988 28.8152 27.4383 28.3757C27.8778 27.9362 28.1248 27.3402 28.125 26.7186V24.2905C27.9753 24.3473 27.8164 24.3759 27.6562 24.3749H22.9688Z" fill="#0E1116"/>
</g>
<defs>
<clipPath id="clip0_649_265">
<rect width="30" height="30" fill="white"/>
</clipPath>
</defs>
</svg>
