<svg width="32" height="32" viewBox="0 0 32 32" fill="none" xmlns="http://www.w3.org/2000/svg">
<g clip-path="url(#clip0_649_236)">
<path fill-rule="evenodd" clip-rule="evenodd" d="M30.0147 18.5595C27.0607 18.5595 25.5787 22.1381 27.6673 24.2267C27.8521 24.4115 27.956 24.6622 27.956 24.9235C27.956 25.1849 27.8521 25.4356 27.6673 25.6204L25.5459 27.7418C25.3611 27.9266 25.1104 28.0304 24.8491 28.0304C24.5877 28.0304 24.337 27.9266 24.1522 27.7418C22.0636 25.6532 18.485 27.1352 18.485 30.0892C18.485 30.3504 18.3812 30.6009 18.1964 30.7856C18.0117 30.9703 17.7612 31.0742 17.5 31.0742H14.5C14.3706 31.0742 14.2425 31.0487 14.1229 30.9992C14.0034 30.9497 13.8948 30.8771 13.8033 30.7856C13.7118 30.6942 13.6392 30.5855 13.5897 30.466C13.5402 30.3464 13.5147 30.2183 13.5147 30.0889C13.5147 27.1313 9.93875 25.6503 7.8475 27.7415C7.66267 27.9263 7.412 28.0302 7.15063 28.0302C6.88925 28.0302 6.63858 27.9263 6.45375 27.7415L4.33269 25.6202C4.14787 25.4353 4.04405 25.1847 4.04405 24.9233C4.04405 24.6619 4.14787 24.4112 4.33269 24.2264C6.42131 22.1378 4.93925 18.5592 1.98531 18.5592C1.72404 18.5592 1.47346 18.4555 1.28868 18.2708C1.10391 18.086 1.00007 17.8355 1 17.5742V14.5742C0.999992 14.4448 1.02547 14.3167 1.07499 14.1971C1.1245 14.0776 1.19708 13.969 1.28857 13.8775C1.38007 13.786 1.48869 13.7134 1.60824 13.6639C1.72779 13.6144 1.85592 13.5889 1.98531 13.5889C4.93925 13.5889 6.42131 10.0103 4.33269 7.92172C4.14787 7.73689 4.04405 7.48622 4.04405 7.22484C4.04405 6.96347 4.14787 6.7128 4.33269 6.52797L6.45406 4.40659C6.63889 4.22178 6.88956 4.11795 7.15094 4.11795C7.41231 4.11795 7.66299 4.22178 7.84781 4.40659C9.93637 6.49522 13.515 5.01316 13.515 2.05922C13.5151 1.798 13.6189 1.5475 13.8036 1.36279C13.9883 1.17808 14.2388 1.07429 14.5 1.07422H17.5C17.6294 1.07421 17.7575 1.09969 17.8771 1.1492C17.9966 1.19872 18.1052 1.2713 18.1967 1.36279C18.2882 1.45429 18.3608 1.56291 18.4103 1.68246C18.4598 1.80201 18.4853 1.93014 18.4853 2.05953C18.4853 5.01347 22.0639 6.49553 24.1525 4.40691C24.3373 4.22209 24.588 4.11826 24.8494 4.11826C25.1108 4.11826 25.3614 4.22209 25.5462 4.40691L27.6676 6.52828C27.8524 6.71311 27.9563 6.96378 27.9563 7.22516C27.9563 7.48653 27.8524 7.7372 27.6676 7.92203C25.579 10.0106 27.0611 13.5892 30.015 13.5892C30.2762 13.5893 30.5267 13.6931 30.7114 13.8778C30.8961 14.0625 30.9999 14.313 31 14.5742V17.5742C31 17.7036 30.9745 17.8317 30.925 17.9513C30.8755 18.0708 30.8029 18.1795 30.7114 18.271C30.6199 18.3625 30.5113 18.435 30.3918 18.4845C30.2722 18.5341 30.1441 18.5595 30.0147 18.5595V18.5595ZM18.8857 9.33422V11.768C19.8089 12.3867 20.5088 13.2858 20.8821 14.3326C21.2554 15.3794 21.2824 16.5184 20.959 17.5817C20.6357 18.645 19.9791 19.5762 19.0862 20.238C18.1933 20.8997 17.1114 21.2569 16 21.2569C14.8886 21.2569 13.8067 20.8997 12.9138 20.238C12.0209 19.5762 11.3644 18.645 11.041 17.5817C10.7176 16.5184 10.7446 15.3794 11.1179 14.3326C11.4912 13.2858 12.1911 12.3867 13.1143 11.768V9.33422C11.5623 9.99889 10.2872 11.179 9.50466 12.675C8.72211 14.1711 8.48 15.8915 8.81925 17.5455C9.1585 19.1994 10.0583 20.6856 11.3666 21.7528C12.675 22.82 14.3116 23.4028 16 23.4028C17.6884 23.4028 19.325 22.82 20.6334 21.7528C21.9417 20.6856 22.8415 19.1994 23.1807 17.5455C23.52 15.8915 23.2779 14.1711 22.4953 12.675C21.7128 11.179 20.4377 9.99889 18.8857 9.33422ZM15.3018 6.49966C15.219 6.49982 15.1396 6.5328 15.081 6.59137C15.0225 6.64994 14.9895 6.72933 14.9893 6.81216V12.8372C14.9895 12.92 15.0224 12.9994 15.081 13.058C15.1396 13.1165 15.219 13.1495 15.3018 13.1497H16.6982C16.781 13.1495 16.8604 13.1165 16.919 13.058C16.9776 12.9994 17.0105 12.92 17.0107 12.8372V6.81216C17.0105 6.72933 16.9775 6.64994 16.919 6.59137C16.8604 6.5328 16.781 6.49982 16.6982 6.49966H15.3018Z" fill="#C1D1FB"/>
</g>
<defs>
<clipPath id="clip0_649_236">
<rect width="32" height="32" fill="white"/>
</clipPath>
</defs>
</svg>
