<svg width="32" height="32" viewBox="0 0 32 32" fill="none" xmlns="http://www.w3.org/2000/svg">
<g clip-path="url(#clip0_649_225)">
<path d="M9.89316 29.3882C10.8248 28.4565 11.36 27.2672 11.4988 26.0381C11.6871 24.4029 11.142 22.708 9.89316 21.4592C9.14983 20.7159 8.23801 20.2204 7.27664 19.9925C5.44308 19.5266 3.41132 20.0122 1.96429 21.4592C0.963272 22.4602 0.418161 23.7388 0.348781 25.0569C0.299231 25.6218 0.348781 26.2066 0.497447 26.7715C0.725413 27.7329 1.22096 28.6448 1.96429 29.3882C4.15464 31.5784 7.7028 31.5784 9.89316 29.3882ZM8.02987 24.3929C8.60472 24.3929 9.08045 24.8686 9.08045 25.4434C9.07054 26.0282 8.60472 26.4941 8.01996 26.504L6.9793 26.4941L6.98921 27.4951C6.9793 28.0798 6.51348 28.5456 5.92872 28.5556C5.34397 28.5456 4.87814 28.0798 4.86824 27.4951L4.87814 26.4941L3.83748 26.504C3.25273 26.4941 2.78692 26.0282 2.777 25.4434C2.78692 25.156 2.90585 24.8984 3.09416 24.71C3.28246 24.5217 3.54015 24.4029 3.82758 24.3929H4.87814V23.3027C4.87814 23.0054 4.99709 22.7476 5.1854 22.5594C5.3737 22.371 5.63139 22.2521 5.92872 22.2521C6.50357 22.2521 6.9793 22.7279 6.9793 23.3027V24.3929H8.02987Z" fill="#C1D1FB"/>
<path d="M19.7371 4.33303V9.65926H17.6347V4.33303C17.6347 3.9546 17.2983 3.77238 17.074 3.77238C17.004 3.77238 16.9338 3.78639 16.8637 3.81443L5.74876 8.00533C5.00589 8.28566 4.52934 8.98648 4.52934 9.78542V10.7245C3.25384 11.6776 2.42688 13.2054 2.42688 14.9295V9.78542C2.42688 8.11746 3.45007 6.63173 5.00589 6.04303L16.1349 1.83811C16.4432 1.72598 16.7657 1.66992 17.074 1.66992C18.4757 1.66992 19.7371 2.80525 19.7371 4.33303Z" fill="#C1D1FB"/>
<path d="M29.0602 19.1215V20.5232C29.0602 20.9016 28.7657 21.2099 28.3733 21.2239H26.327C25.5841 21.2239 24.9113 20.6773 24.8553 19.9485C24.8132 19.5139 24.9814 19.1075 25.2617 18.8272C25.5141 18.5609 25.8644 18.4207 26.2429 18.4207H28.3594C28.7657 18.4348 29.0602 18.7431 29.0602 19.1215Z" fill="#C1D1FB"/>
<path d="M26.2267 16.9467H27.6564C28.4273 16.9467 29.0581 16.316 29.0581 15.5451V14.9284C29.0581 12.027 26.6893 9.6582 23.7878 9.6582H7.69703C6.50565 9.6582 5.41237 10.0507 4.52934 10.7234C3.25384 11.6766 2.42688 13.2044 2.42688 14.9284V17.4233C2.42688 17.9558 2.98753 18.2924 3.49212 18.1242C4.27704 17.8578 5.10401 17.7177 5.93098 17.7177C10.1779 17.7177 13.64 21.1797 13.64 25.4267C13.64 26.4358 13.3737 27.5431 12.9533 28.5243C12.7289 29.0289 13.0794 29.6315 13.626 29.6315H23.7878C26.6893 29.6315 29.0581 27.2628 29.0581 24.3614V24.0951C29.0581 23.3242 28.4273 22.6934 27.6564 22.6934H26.437C25.0914 22.6934 23.8019 21.8664 23.4514 20.5629C23.1711 19.4976 23.5076 18.4605 24.2083 17.7876C24.727 17.2551 25.4418 16.9467 26.2267 16.9467ZM18.5458 16.6665H11.5375C10.9629 16.6665 10.4863 16.1898 10.4863 15.6151C10.4863 15.0405 10.9629 14.5639 11.5375 14.5639H18.5458C19.1203 14.5639 19.597 15.0405 19.597 15.6151C19.597 16.1898 19.1203 16.6665 18.5458 16.6665Z" fill="#C1D1FB"/>
</g>
<defs>
<clipPath id="clip0_649_225">
<rect width="32" height="32" fill="white"/>
</clipPath>
</defs>
</svg>
