<svg width="32" height="32" viewBox="0 0 32 32" fill="none" xmlns="http://www.w3.org/2000/svg">
<path d="M22 8.5C22 9.68669 21.6481 10.8467 20.9888 11.8334C20.3295 12.8201 19.3925 13.5892 18.2961 14.0433C17.1997 14.4974 15.9933 14.6162 14.8295 14.3847C13.6656 14.1532 12.5965 13.5818 11.7574 12.7426C10.9182 11.9035 10.3468 10.8344 10.1153 9.67054C9.88378 8.50666 10.0026 7.30026 10.4567 6.2039C10.9108 5.10754 11.6799 4.17047 12.6666 3.51118C13.6533 2.85189 14.8133 2.5 16 2.5C17.5913 2.5 19.1174 3.13214 20.2426 4.25736C21.3679 5.38258 22 6.9087 22 8.5ZM29.5 24.5C29.501 25.4992 29.2055 26.4763 28.651 27.3075C28.0965 28.1387 27.3078 28.7868 26.3849 29.1696C25.4619 29.5525 24.4461 29.6529 23.466 29.4582C22.486 29.2635 21.5857 28.7824 20.8791 28.0759C20.1726 27.3693 19.6915 26.469 19.4968 25.489C19.3021 24.5089 19.4025 23.4931 19.7854 22.5701C20.1682 21.6472 20.8163 20.8585 21.6475 20.304C22.4787 19.7495 23.4558 19.454 24.455 19.455C25.793 19.455 27.0762 19.9865 28.0224 20.9326C28.9685 21.8788 29.5 23.162 29.5 24.5ZM27.5 24.5C27.5 24.3674 27.4473 24.2402 27.3536 24.1464C27.2598 24.0527 27.1326 24 27 24H25V22C25 21.8674 24.9473 21.7402 24.8536 21.6464C24.7598 21.5527 24.6326 21.5 24.5 21.5C24.3674 21.5 24.2402 21.5527 24.1464 21.6464C24.0527 21.7402 24 21.8674 24 22V24H22C21.8674 24 21.7402 24.0527 21.6464 24.1464C21.5527 24.2402 21.5 24.3674 21.5 24.5C21.5 24.6326 21.5527 24.7598 21.6464 24.8536C21.7402 24.9473 21.8674 25 22 25H24V27C24 27.1326 24.0527 27.2598 24.1464 27.3536C24.2402 27.4473 24.3674 27.5 24.5 27.5C24.6326 27.5 24.7598 27.4473 24.8536 27.3536C24.9473 27.2598 25 27.1326 25 27V25H27C27.1326 25 27.2598 24.9473 27.3536 24.8536C27.4473 24.7598 27.5 24.6326 27.5 24.5ZM18.405 24.5C18.4081 22.9299 19.0209 21.4224 20.1142 20.2956C21.2075 19.1687 22.6957 18.5106 24.265 18.46C23.5674 17.9889 22.8042 17.6233 22 17.375C21.765 17.3 21.53 17.245 21.29 17.19L21.08 17.15C20.89 17.115 20.7 17.09 20.505 17.065L20.28 17.04C20.025 17.04 19.78 17 19.5 17H12.5C12.235 17 11.975 17 11.72 17.04L11.495 17.065C11.3 17.065 11.11 17.115 10.92 17.15L10.715 17.19C10.47 17.245 10.215 17.3 10 17.375C8.26252 17.9097 6.74222 18.9873 5.66232 20.4497C4.58241 21.912 3.99979 23.6821 4 25.5C4 26.5609 4.42143 27.5783 5.17157 28.3284C5.92172 29.0786 6.93913 29.5 8 29.5H21.055C20.2395 28.9454 19.5718 28.2 19.11 27.3286C18.6481 26.4572 18.4061 25.4862 18.405 24.5Z" fill="#C1D1FB"/>
</svg>
