<svg width="27" height="27" viewBox="0 0 27 27" fill="none" xmlns="http://www.w3.org/2000/svg">
<path d="M26.396 21.0364C26.396 23.9842 23.9842 26.396 21.0364 26.396H5.35959C2.41179 26.396 0 23.9842 0 21.0364V5.35959C0 2.41185 2.41179 0 5.35959 0H21.0364C23.9842 0 26.396 2.41185 26.396 5.35959V21.0364Z" fill="white" fill-opacity="0.78"/>
<path d="M15.1734 11.8819L21.5228 3.96826H19.6837L14.2541 10.736L8.824 3.96826H2.76154L11.2226 14.514L4.87264 22.4282H6.71175L12.1419 15.66L17.5725 22.4282H23.635L15.1734 11.8819ZM5.75117 5.40277H8.13541L20.6448 20.9936H18.2606L5.75117 5.40277Z" fill="#0E1116"/>
</svg>
